<?xml version="1.0" encoding="UTF-8" standalone="no"?>
<!-- Created with Inkscape (http://www.inkscape.org/) -->

<svg
   xmlns:dc="http://purl.org/dc/elements/1.1/"
   xmlns:cc="http://creativecommons.org/ns#"
   xmlns:rdf="http://www.w3.org/1999/02/22-rdf-syntax-ns#"
   xmlns:svg="http://www.w3.org/2000/svg"
   xmlns="http://www.w3.org/2000/svg"
   xmlns:sodipodi="http://sodipodi.sourceforge.net/DTD/sodipodi-0.dtd"
   xmlns:inkscape="http://www.inkscape.org/namespaces/inkscape"
   version="1.1"
   id="svg2"
   xml:space="preserve"
   width="4328.2798"
   height="1733.3333"
   viewBox="0 0 4328.2798 1733.3333"
   sodipodi:docname="Set_of_flat_icon_media_player_button.svg"
   inkscape:version="0.92.3 (2405546, 2018-03-11)"><metadata
     id="metadata503"><rdf:RDF><cc:Work
         rdf:about=""><dc:format>image/svg+xml</dc:format><dc:type
           rdf:resource="http://purl.org/dc/dcmitype/StillImage" /></cc:Work></rdf:RDF></metadata><defs
     id="defs6"><clipPath
       clipPathUnits="userSpaceOnUse"
       id="clipPath20"><path
         d="m 3152.47,1086.7 -820.5,1260.6 c 0.01,-0.1 0.06,-0.1 0.07,-0.1 l 820.43,-1260.5 1401.09,911.9 v 0 L 3152.47,1086.7"
         id="path18" /></clipPath><linearGradient
       x1="0"
       y1="0"
       x2="1"
       y2="0"
       gradientUnits="userSpaceOnUse"
       gradientTransform="matrix(-864.373,1497.14,1497.14,864.373,3877.93,1417.7)"
       spreadMethod="pad"
       id="linearGradient28"><stop
         style="stop-opacity:1;stop-color:#cccccc"
         offset="0"
         id="stop22" /><stop
         style="stop-opacity:1;stop-color:#cccccc"
         offset="0.237968"
         id="stop24" /><stop
         style="stop-opacity:1;stop-color:#cccccc"
         offset="1"
         id="stop26" /></linearGradient><clipPath
       clipPathUnits="userSpaceOnUse"
       id="clipPath38"><path
         d="m 3152.47,1086.7 -820.43,1260.5 c 151.19,-215.5 401.49,-356.3 684.69,-356.3 461.64,0 835.87,374.2 835.87,835.8 0,168.3 -49.71,324.91 -135.23,456.05 l 0.25,0.17 835.94,-1284.32 -1401.09,-911.9"
         id="path36" /></clipPath><clipPath
       clipPathUnits="userSpaceOnUse"
       id="clipPath206"><path
         d="m 3016.73,1990.9 c -283.2,0 -533.5,140.8 -684.69,356.3 -0.01,0 -0.06,0 -0.07,0.1 -95.24,135.7 -151.12,301 -151.12,479.4 0,461.68 374.24,835.92 835.88,835.92 22.73,0 45.26,-0.91 67.54,-2.69 l 68.2,-104.77 109.12,71.02 c 189.24,-57.89 349.94,-181.15 455.78,-343.43 85.52,-131.14 135.23,-287.75 135.23,-456.05 0,-461.6 -374.23,-835.8 -835.87,-835.8"
         id="path204" /></clipPath><linearGradient
       x1="0"
       y1="0"
       x2="1"
       y2="0"
       gradientUnits="userSpaceOnUse"
       gradientTransform="matrix(-836.012,1448.01,1448.01,836.012,3434.73,2102.7)"
       spreadMethod="pad"
       id="linearGradient212"><stop
         style="stop-opacity:1;stop-color:#4a2e82"
         offset="0"
         id="stop208" /><stop
         style="stop-opacity:1;stop-color:#b02347"
         offset="1"
         id="stop210" /></linearGradient><clipPath
       clipPathUnits="userSpaceOnUse"
       id="clipPath222"><path
         d="m 3152.47,8493.41 -835.93,1284.29 835.93,-1284.28 1401.09,911.96 v -0.01 L 3152.47,8493.41"
         id="path220" /></clipPath><linearGradient
       x1="0"
       y1="0"
       x2="1"
       y2="0"
       gradientUnits="userSpaceOnUse"
       gradientTransform="matrix(-864.373,1497.14,1497.14,864.373,3877.93,8824.44)"
       spreadMethod="pad"
       id="linearGradient230"><stop
         style="stop-opacity:1;stop-color:#cccccc"
         offset="0"
         id="stop224" /><stop
         style="stop-opacity:1;stop-color:#cccccc"
         offset="0.237968"
         id="stop226" /><stop
         style="stop-opacity:1;stop-color:#cccccc"
         offset="1"
         id="stop228" /></linearGradient><clipPath
       clipPathUnits="userSpaceOnUse"
       id="clipPath240"><path
         d="M 3152.47,8493.42 2316.54,9777.71 3717.62,10689.7 4553.56,9405.37 3152.47,8493.42"
         id="path238" /></clipPath><clipPath
       clipPathUnits="userSpaceOnUse"
       id="clipPath252"><path
         d="m 3852.95,10233.7 c 0,-461.65 -374.23,-835.89 -835.87,-835.89 -461.64,0 -835.87,374.24 -835.87,835.89 0,461.6 374.23,835.9 835.87,835.9 461.64,0 835.87,-374.3 835.87,-835.9 z"
         id="path250" /></clipPath><linearGradient
       x1="0"
       y1="0"
       x2="1"
       y2="0"
       gradientUnits="userSpaceOnUse"
       gradientTransform="matrix(-836.012,1448.01,1448.01,836.012,3435.09,9509.68)"
       spreadMethod="pad"
       id="linearGradient258"><stop
         style="stop-opacity:1;stop-color:#4a2e82"
         offset="0"
         id="stop254" /><stop
         style="stop-opacity:1;stop-color:#b02347"
         offset="1"
         id="stop256" /></linearGradient><clipPath
       clipPathUnits="userSpaceOnUse"
       id="clipPath272"><path
         d="m 5335.94,8493.41 -544.1,835.94 544.1,-835.93 1401.09,911.96 -835.93,1284.32 v 0 l 835.94,-1284.33 -1401.1,-911.96"
         id="path270" /></clipPath><linearGradient
       x1="0"
       y1="0"
       x2="1"
       y2="0"
       gradientUnits="userSpaceOnUse"
       gradientTransform="matrix(-864.373,1497.14,1497.14,864.373,6061.41,8824.44)"
       spreadMethod="pad"
       id="linearGradient280"><stop
         style="stop-opacity:1;stop-color:#cccccc"
         offset="0"
         id="stop274" /><stop
         style="stop-opacity:1;stop-color:#cccccc"
         offset="0.237968"
         id="stop276" /><stop
         style="stop-opacity:1;stop-color:#cccccc"
         offset="1"
         id="stop278" /></linearGradient><clipPath
       clipPathUnits="userSpaceOnUse"
       id="clipPath290"><path
         d="m 5335.94,8493.42 -544.1,835.93 -291.83,448.35 1401.09,912 835.93,-1284.32 -1401.09,-911.96"
         id="path288" /></clipPath><clipPath
       clipPathUnits="userSpaceOnUse"
       id="clipPath302"><path
         d="m 6036.59,10233.7 c 0,-461.65 -374.23,-835.89 -835.87,-835.89 -461.64,0 -835.87,374.24 -835.87,835.89 0,461.6 374.23,835.9 835.87,835.9 461.64,0 835.87,-374.3 835.87,-835.9 z"
         id="path300" /></clipPath><linearGradient
       x1="0"
       y1="0"
       x2="1"
       y2="0"
       gradientUnits="userSpaceOnUse"
       gradientTransform="matrix(-836.012,1448.01,1448.01,836.012,5618.72,9509.68)"
       spreadMethod="pad"
       id="linearGradient308"><stop
         style="stop-opacity:1;stop-color:#4a2e82"
         offset="0"
         id="stop304" /><stop
         style="stop-opacity:1;stop-color:#b02347"
         offset="1"
         id="stop306" /></linearGradient><clipPath
       clipPathUnits="userSpaceOnUse"
       id="clipPath320"><path
         d="m 5335.94,6022.32 1401.09,911.97 -835.93,1284.29 v 0 l 835.94,-1284.29 -1401.1,-911.97"
         id="path318" /></clipPath><linearGradient
       x1="0"
       y1="0"
       x2="1"
       y2="0"
       gradientUnits="userSpaceOnUse"
       gradientTransform="matrix(-864.373,1497.14,1497.14,864.373,6061.41,6353.35)"
       spreadMethod="pad"
       id="linearGradient328"><stop
         style="stop-opacity:1;stop-color:#cccccc"
         offset="0"
         id="stop322" /><stop
         style="stop-opacity:1;stop-color:#cccccc"
         offset="0.237968"
         id="stop324" /><stop
         style="stop-opacity:1;stop-color:#cccccc"
         offset="1"
         id="stop326" /></linearGradient><clipPath
       clipPathUnits="userSpaceOnUse"
       id="clipPath338"><path
         d="M 5335.94,6022.32 4500.01,7306.62 5901.1,8218.58 6737.03,6934.29 5335.94,6022.32"
         id="path336" /></clipPath><clipPath
       clipPathUnits="userSpaceOnUse"
       id="clipPath350"><path
         d="m 6037.13,7768.53 c 2.49,-461.64 -369.72,-837.89 -831.35,-840.38 -461.64,-2.49 -837.88,369.72 -840.38,831.35 -2.49,461.63 369.72,837.88 831.35,840.37 461.64,2.49 837.88,-369.71 840.38,-831.34 z"
         id="path348" /></clipPath><linearGradient
       x1="0"
       y1="0"
       x2="1"
       y2="0"
       gradientUnits="userSpaceOnUse"
       gradientTransform="matrix(-836.016,1448.02,1448.02,836.016,5619.27,7040)"
       spreadMethod="pad"
       id="linearGradient356"><stop
         style="stop-opacity:1;stop-color:#4a2e82"
         offset="0"
         id="stop352" /><stop
         style="stop-opacity:1;stop-color:#b02347"
         offset="1"
         id="stop354" /></linearGradient><clipPath
       clipPathUnits="userSpaceOnUse"
       id="clipPath368"><path
         d="m 3152.47,6022.32 -835.93,1284.3 1401.08,911.96 835.94,-1284.29 -1401.09,-911.97"
         id="path366" /></clipPath><clipPath
       clipPathUnits="userSpaceOnUse"
       id="clipPath380"><path
         d="m 3852.85,7767.11 c 2.49,-461.63 -369.72,-837.88 -831.35,-840.37 -461.63,-2.5 -837.88,369.71 -840.37,831.35 -2.49,461.63 369.71,837.88 831.35,840.37 461.63,2.49 837.88,-369.71 840.37,-831.35 z"
         id="path378" /></clipPath><linearGradient
       x1="0"
       y1="0"
       x2="1"
       y2="0"
       gradientUnits="userSpaceOnUse"
       gradientTransform="matrix(-836.016,1448.02,1448.02,836.016,3435,7038.59)"
       spreadMethod="pad"
       id="linearGradient386"><stop
         style="stop-opacity:1;stop-color:#4a2e82"
         offset="0"
         id="stop382" /><stop
         style="stop-opacity:1;stop-color:#b02347"
         offset="1"
         id="stop384" /></linearGradient><clipPath
       clipPathUnits="userSpaceOnUse"
       id="clipPath398"><path
         d="m 9702.9,6022.32 -835.93,1284.3 2.58,1.68 c 148.96,-229.76 407.68,-381.79 701.9,-381.79 461.65,0 835.85,374.23 835.85,835.87 0,141.53 -35.1,274.82 -97.2,391.66 L 11104,6934.29 9702.9,6022.32"
         id="path396" /></clipPath><clipPath
       clipPathUnits="userSpaceOnUse"
       id="clipPath410"><path
         d="m 9571.45,6926.51 c -294.22,0 -552.94,152.03 -701.9,381.79 v 0 c -84.76,130.75 -133.97,286.66 -133.97,454.08 0,461.64 374.23,835.88 835.87,835.88 21.81,0 43.43,-0.84 64.82,-2.48 l 66.63,-102.37 107.74,70.12 c 216.06,-64.41 395.46,-213.85 499.46,-409.49 v 0 c 62.1,-116.84 97.2,-250.13 97.2,-391.66 0,-461.64 -374.2,-835.87 -835.85,-835.87"
         id="path408" /></clipPath><linearGradient
       x1="0"
       y1="0"
       x2="1"
       y2="0"
       gradientUnits="userSpaceOnUse"
       gradientTransform="matrix(-836.012,1448.01,1448.01,836.012,9989.45,7038.38)"
       spreadMethod="pad"
       id="linearGradient416"><stop
         style="stop-opacity:1;stop-color:#4a2e82"
         offset="0"
         id="stop412" /><stop
         style="stop-opacity:1;stop-color:#b02347"
         offset="1"
         id="stop414" /></linearGradient><clipPath
       clipPathUnits="userSpaceOnUse"
       id="clipPath430"><path
         d="m 7519.42,6022.32 v 0 l 1401.09,911.97 -803.64,1234.69 v 0 l 803.65,-1234.69 -1401.1,-911.97"
         id="path428" /></clipPath><linearGradient
       x1="0"
       y1="0"
       x2="1"
       y2="0"
       gradientUnits="userSpaceOnUse"
       gradientTransform="matrix(-864.373,1497.14,1497.14,864.373,8244.89,6353.35)"
       spreadMethod="pad"
       id="linearGradient438"><stop
         style="stop-opacity:1;stop-color:#cccccc"
         offset="0"
         id="stop432" /><stop
         style="stop-opacity:1;stop-color:#cccccc"
         offset="0.237968"
         id="stop434" /><stop
         style="stop-opacity:1;stop-color:#cccccc"
         offset="1"
         id="stop436" /></linearGradient><clipPath
       clipPathUnits="userSpaceOnUse"
       id="clipPath448"><path
         d="m 7519.42,6022.32 -835.93,1284.3 1.58,1.02 c 149.19,-228.47 407.15,-379.46 700.39,-379.46 461.63,0 835.86,374.23 835.86,835.87 0,146.91 -37.9,284.96 -104.45,404.93 l 803.64,-1234.69 -1401.1,-911.97"
         id="path446" /></clipPath><clipPath
       clipPathUnits="userSpaceOnUse"
       id="clipPath460"><path
         d="m 7385.46,6928.18 c -293.24,0 -551.2,150.99 -700.39,379.46 -85.69,131.22 -135.49,288 -135.49,456.41 0,461.64 374.23,835.88 835.88,835.88 22.31,0 44.45,-0.88 66.32,-2.6 l 67.64,-103.92 108.7,70.75 c 209.61,-63.49 384.39,-207.09 488.75,-395.18 v 0 c 66.55,-119.97 104.45,-258.02 104.45,-404.93 0,-461.64 -374.23,-835.87 -835.86,-835.87"
         id="path458" /></clipPath><linearGradient
       x1="0"
       y1="0"
       x2="1"
       y2="0"
       gradientUnits="userSpaceOnUse"
       gradientTransform="matrix(-836.012,1448.01,1448.01,836.012,7803.46,7040.05)"
       spreadMethod="pad"
       id="linearGradient466"><stop
         style="stop-opacity:1;stop-color:#4a2e82"
         offset="0"
         id="stop462" /><stop
         style="stop-opacity:1;stop-color:#b02347"
         offset="1"
         id="stop464" /></linearGradient><clipPath
       clipPathUnits="userSpaceOnUse"
       id="clipPath480"><path
         d="m 7628.12,8564.16 h -0.02 l 1292.41,841.22 -835.93,1284.32 835.94,-1284.33 -1292.4,-841.21"
         id="path478" /></clipPath><linearGradient
       x1="0"
       y1="0"
       x2="1"
       y2="0"
       gradientUnits="userSpaceOnUse"
       gradientTransform="matrix(-864.373,1497.14,1497.14,864.373,8244.89,8824.44)"
       spreadMethod="pad"
       id="linearGradient488"><stop
         style="stop-opacity:1;stop-color:#cccccc"
         offset="0"
         id="stop482" /><stop
         style="stop-opacity:1;stop-color:#cccccc"
         offset="0.237968"
         id="stop484" /><stop
         style="stop-opacity:1;stop-color:#cccccc"
         offset="1"
         id="stop486" /></linearGradient><clipPath
       clipPathUnits="userSpaceOnUse"
       id="clipPath498"><path
         d="m 7519.42,8493.41 v 0 l 108.68,70.75 h 0.02 l -108.7,-70.75"
         id="path496" /></clipPath><clipPath
       clipPathUnits="userSpaceOnUse"
       id="clipPath510"><path
         d="m 7628.1,8564.16 c -56.49,17.11 -115.47,28.4 -176.32,33.17 l -768.29,1180.37 1401.09,912 835.93,-1284.32 -1292.41,-841.22"
         id="path508" /></clipPath><clipPath
       clipPathUnits="userSpaceOnUse"
       id="clipPath522"><path
         d="m 7519.42,8493.41 -67.64,103.92 c 60.85,-4.77 119.83,-16.06 176.32,-33.17 l -108.69,-70.74"
         id="path520" /></clipPath><clipPath
       clipPathUnits="userSpaceOnUse"
       id="clipPath534"><path
         d="m 8222.77,10231.5 c 0,-461.62 -374.23,-835.86 -835.87,-835.86 -461.64,0 -835.87,374.24 -835.87,835.86 0,461.7 374.23,835.9 835.87,835.9 461.64,0 835.87,-374.2 835.87,-835.9 z"
         id="path532" /></clipPath><linearGradient
       x1="0"
       y1="0"
       x2="1"
       y2="0"
       gradientUnits="userSpaceOnUse"
       gradientTransform="matrix(-836.012,1448.01,1448.01,836.012,7804.91,9507.51)"
       spreadMethod="pad"
       id="linearGradient540"><stop
         style="stop-opacity:1;stop-color:#4a2e82"
         offset="0"
         id="stop536" /><stop
         style="stop-opacity:1;stop-color:#b02347"
         offset="1"
         id="stop538" /></linearGradient><clipPath
       clipPathUnits="userSpaceOnUse"
       id="clipPath556"><path
         d="m 4553.56,4467.11 -835.94,1284.3 -0.01,-0.01 -1401.07,-911.96 1401.08,911.97 835.94,-1284.3"
         id="path554" /></clipPath><linearGradient
       x1="0"
       y1="0"
       x2="1"
       y2="0"
       gradientUnits="userSpaceOnUse"
       gradientTransform="matrix(-864.373,1497.14,1497.14,864.373,3877.93,3886.18)"
       spreadMethod="pad"
       id="linearGradient564"><stop
         style="stop-opacity:1;stop-color:#cccccc"
         offset="0"
         id="stop558" /><stop
         style="stop-opacity:1;stop-color:#cccccc"
         offset="0.237968"
         id="stop560" /><stop
         style="stop-opacity:1;stop-color:#cccccc"
         offset="1"
         id="stop562" /></linearGradient><clipPath
       clipPathUnits="userSpaceOnUse"
       id="clipPath574"><path
         d="m 3261.59,3626.18 c -56.78,17.37 -116.11,28.86 -177.32,33.75 l -767.73,1179.51 1401.08,911.97 0.01,-0.01 835.93,-1284.29 -1291.97,-840.93"
         id="path572" /></clipPath><clipPath
       clipPathUnits="userSpaceOnUse"
       id="clipPath586"><path
         d="m 3152.47,3555.16 -68.2,104.77 c 61.21,-4.89 120.54,-16.38 177.32,-33.75 l -109.12,-71.02"
         id="path584" /></clipPath><clipPath
       clipPathUnits="userSpaceOnUse"
       id="clipPath598"><path
         d="m 3852.71,5295.67 c 0,-461.64 -374.23,-835.87 -835.87,-835.87 -461.64,0 -835.87,374.23 -835.87,835.87 0,461.64 374.23,835.87 835.87,835.87 461.64,0 835.87,-374.23 835.87,-835.87 z"
         id="path596" /></clipPath><linearGradient
       x1="0"
       y1="0"
       x2="1"
       y2="0"
       gradientUnits="userSpaceOnUse"
       gradientTransform="matrix(-836.012,1448.01,1448.01,836.012,3434.84,4571.67)"
       spreadMethod="pad"
       id="linearGradient604"><stop
         style="stop-opacity:1;stop-color:#4a2e82"
         offset="0"
         id="stop600" /><stop
         style="stop-opacity:1;stop-color:#b02347"
         offset="1"
         id="stop602" /></linearGradient><clipPath
       clipPathUnits="userSpaceOnUse"
       id="clipPath622"><path
         d="m 5335.94,3555.16 1401.09,911.95 -835.93,1284.3 -0.01,-0.01 0.01,0.01 835.94,-1284.3 -1401.1,-911.95"
         id="path620" /></clipPath><linearGradient
       x1="0"
       y1="0"
       x2="1"
       y2="0"
       gradientUnits="userSpaceOnUse"
       gradientTransform="matrix(-864.373,1497.14,1497.14,864.373,6061.41,3886.18)"
       spreadMethod="pad"
       id="linearGradient630"><stop
         style="stop-opacity:1;stop-color:#cccccc"
         offset="0"
         id="stop624" /><stop
         style="stop-opacity:1;stop-color:#cccccc"
         offset="0.237968"
         id="stop626" /><stop
         style="stop-opacity:1;stop-color:#cccccc"
         offset="1"
         id="stop628" /></linearGradient><clipPath
       clipPathUnits="userSpaceOnUse"
       id="clipPath640"><path
         d="m 5335.94,3555.16 -835.93,1284.28 1401.09,911.97 v -0.01 L 6737.03,4467.11 5335.94,3555.16"
         id="path638" /></clipPath><clipPath
       clipPathUnits="userSpaceOnUse"
       id="clipPath652"><path
         d="m 6037.58,5295.67 c 0,-461.64 -374.24,-835.87 -835.88,-835.87 -461.64,0 -835.87,374.23 -835.87,835.87 0,461.64 374.23,835.87 835.87,835.87 461.64,0 835.88,-374.23 835.88,-835.87 z"
         id="path650" /></clipPath><linearGradient
       x1="0"
       y1="0"
       x2="1"
       y2="0"
       gradientUnits="userSpaceOnUse"
       gradientTransform="matrix(-836.012,1448.01,1448.01,836.012,5619.71,4571.67)"
       spreadMethod="pad"
       id="linearGradient658"><stop
         style="stop-opacity:1;stop-color:#4a2e82"
         offset="0"
         id="stop654" /><stop
         style="stop-opacity:1;stop-color:#b02347"
         offset="1"
         id="stop656" /></linearGradient><clipPath
       clipPathUnits="userSpaceOnUse"
       id="clipPath672"><path
         d="m 7519.42,3555.16 v 0 l 1401.09,911.95 -835.93,1284.3 -0.01,-0.01 0.01,0.01 835.94,-1284.3 -1401.1,-911.95"
         id="path670" /></clipPath><linearGradient
       x1="0"
       y1="0"
       x2="1"
       y2="0"
       gradientUnits="userSpaceOnUse"
       gradientTransform="matrix(-864.373,1497.14,1497.14,864.373,8244.89,3886.18)"
       spreadMethod="pad"
       id="linearGradient680"><stop
         style="stop-opacity:1;stop-color:#cccccc"
         offset="0"
         id="stop674" /><stop
         style="stop-opacity:1;stop-color:#cccccc"
         offset="0.237968"
         id="stop676" /><stop
         style="stop-opacity:1;stop-color:#cccccc"
         offset="1"
         id="stop678" /></linearGradient><clipPath
       clipPathUnits="userSpaceOnUse"
       id="clipPath690"><path
         d="m 7519.42,3555.16 -835.93,1284.28 1401.09,911.97 0.01,-0.01 835.92,-1284.29 -1401.1,-911.95"
         id="path688" /></clipPath><clipPath
       clipPathUnits="userSpaceOnUse"
       id="clipPath702"><path
         d="m 8223.84,5296.02 c 0,-461.65 -374.23,-835.88 -835.87,-835.88 -461.64,0 -835.87,374.23 -835.87,835.88 0,461.64 374.23,835.86 835.87,835.86 461.64,0 835.87,-374.22 835.87,-835.86 z"
         id="path700" /></clipPath><linearGradient
       x1="0"
       y1="0"
       x2="1"
       y2="0"
       gradientUnits="userSpaceOnUse"
       gradientTransform="matrix(-836.012,1448.01,1448.01,836.012,7805.98,4572.01)"
       spreadMethod="pad"
       id="linearGradient708"><stop
         style="stop-opacity:1;stop-color:#4a2e82"
         offset="0"
         id="stop704" /><stop
         style="stop-opacity:1;stop-color:#b02347"
         offset="1"
         id="stop706" /></linearGradient><clipPath
       clipPathUnits="userSpaceOnUse"
       id="clipPath724"><path
         d="m 9810.64,8563.53 -0.01,0.01 1293.37,841.84 v -0.01 L 9810.64,8563.53 m -174.36,32.25 h -0.01 l -769.3,1181.92 769.31,-1181.92"
         id="path722" /></clipPath><linearGradient
       x1="0"
       y1="0"
       x2="1"
       y2="0"
       gradientUnits="userSpaceOnUse"
       gradientTransform="matrix(-864.373,1497.14,1497.14,864.373,10428.4,8824.44)"
       spreadMethod="pad"
       id="linearGradient732"><stop
         style="stop-opacity:1;stop-color:#cccccc"
         offset="0"
         id="stop726" /><stop
         style="stop-opacity:1;stop-color:#cccccc"
         offset="0.237968"
         id="stop728" /><stop
         style="stop-opacity:1;stop-color:#cccccc"
         offset="1"
         id="stop730" /></linearGradient><clipPath
       clipPathUnits="userSpaceOnUse"
       id="clipPath742"><path
         d="m 9702.9,8493.41 -66.63,102.37 h 0.01 l 66.62,-102.36 107.73,70.12 0.01,-0.01 -107.74,-70.12"
         id="path740" /></clipPath><clipPath
       clipPathUnits="userSpaceOnUse"
       id="clipPath754"><path
         d="m 9810.63,8563.54 c -55.9,16.66 -114.23,27.63 -174.35,32.24 L 8866.97,9777.71 10268.1,10689.7 11104,9405.37 9810.63,8563.54"
         id="path752" /></clipPath><clipPath
       clipPathUnits="userSpaceOnUse"
       id="clipPath766"><path
         d="m 9702.9,8493.42 -66.62,102.36 c 60.12,-4.61 118.45,-15.58 174.35,-32.24 l -107.73,-70.12"
         id="path764" /></clipPath><clipPath
       clipPathUnits="userSpaceOnUse"
       id="clipPath778"><path
         d="m 10407.6,10230.8 c 0,-461.69 -374.2,-835.92 -835.84,-835.92 -461.64,0 -835.87,374.23 -835.87,835.92 0,461.6 374.23,835.8 835.87,835.8 461.64,0 835.84,-374.2 835.84,-835.8 z"
         id="path776" /></clipPath><linearGradient
       x1="0"
       y1="0"
       x2="1"
       y2="0"
       gradientUnits="userSpaceOnUse"
       gradientTransform="matrix(-836.012,1448.01,1448.01,836.012,9989.77,9506.74)"
       spreadMethod="pad"
       id="linearGradient784"><stop
         style="stop-opacity:1;stop-color:#4a2e82"
         offset="0"
         id="stop780" /><stop
         style="stop-opacity:1;stop-color:#b02347"
         offset="1"
         id="stop782" /></linearGradient><clipPath
       clipPathUnits="userSpaceOnUse"
       id="clipPath802"><path
         d="m 5335.94,1086.7 -544.1,835.9 544.1,-835.9 1401.09,911.9 -835.93,1284.32 v 0 L 6737.04,1998.6 5335.94,1086.7"
         id="path800" /></clipPath><linearGradient
       x1="0"
       y1="0"
       x2="1"
       y2="0"
       gradientUnits="userSpaceOnUse"
       gradientTransform="matrix(-864.373,1497.14,1497.14,864.373,6061.41,1417.7)"
       spreadMethod="pad"
       id="linearGradient810"><stop
         style="stop-opacity:1;stop-color:#cccccc"
         offset="0"
         id="stop804" /><stop
         style="stop-opacity:1;stop-color:#cccccc"
         offset="0.237968"
         id="stop806" /><stop
         style="stop-opacity:1;stop-color:#cccccc"
         offset="1"
         id="stop808" /></linearGradient><clipPath
       clipPathUnits="userSpaceOnUse"
       id="clipPath820"><path
         d="M 5335.94,1086.7 4791.84,1922.6 4500.01,2371 5901.1,3282.92 6737.03,1998.6 5335.94,1086.7"
         id="path818" /></clipPath><clipPath
       clipPathUnits="userSpaceOnUse"
       id="clipPath832"><path
         d="m 6036.91,2827.3 c 0,-461.6 -374.23,-835.8 -835.88,-835.8 -461.64,0 -835.86,374.2 -835.86,835.8 0,461.66 374.22,835.9 835.86,835.9 461.65,0 835.88,-374.24 835.88,-835.9 z"
         id="path830" /></clipPath><linearGradient
       x1="0"
       y1="0"
       x2="1"
       y2="0"
       gradientUnits="userSpaceOnUse"
       gradientTransform="matrix(-836.012,1448.01,1448.01,836.012,5619.04,2103.3)"
       spreadMethod="pad"
       id="linearGradient838"><stop
         style="stop-opacity:1;stop-color:#4a2e82"
         offset="0"
         id="stop834" /><stop
         style="stop-opacity:1;stop-color:#b02347"
         offset="1"
         id="stop836" /></linearGradient><clipPath
       clipPathUnits="userSpaceOnUse"
       id="clipPath850"><path
         d="M 9702.9,1086.7 8866.97,2371 9702.9,1086.7 11104,1998.6 v 0 L 9702.9,1086.7"
         id="path848" /></clipPath><linearGradient
       x1="0"
       y1="0"
       x2="1"
       y2="0"
       gradientUnits="userSpaceOnUse"
       gradientTransform="matrix(-864.373,1497.14,1497.14,864.373,10428.4,1417.7)"
       spreadMethod="pad"
       id="linearGradient858"><stop
         style="stop-opacity:1;stop-color:#cccccc"
         offset="0"
         id="stop852" /><stop
         style="stop-opacity:1;stop-color:#cccccc"
         offset="0.237968"
         id="stop854" /><stop
         style="stop-opacity:1;stop-color:#cccccc"
         offset="1"
         id="stop856" /></linearGradient><clipPath
       clipPathUnits="userSpaceOnUse"
       id="clipPath868"><path
         d="m 9702.9,1086.7 -835.93,1284.3 2.38,1.5 c 149.15,-229.2 407.62,-380.6 701.08,-380.6 1.52,0 3.09,0 4.61,0 461.66,2.5 833.86,378.7 831.36,840.3 -0.8,140.8 -36.3,273.27 -98.4,389.34 L 11104,1998.6 9702.9,1086.7"
         id="path866" /></clipPath><clipPath
       clipPathUnits="userSpaceOnUse"
       id="clipPath880"><path
         d="m 9570.43,1991.9 c -293.46,0 -551.93,151.4 -701.08,380.6 -84.42,129.8 -133.79,284.4 -134.68,450.7 -2.5,461.64 369.71,837.89 831.34,840.39 1.52,0.01 3.09,0.01 4.61,0.01 21.28,0 42.35,-0.79 63.23,-2.36 l 69.05,-106.08 111.23,72.39 c 213.17,-64.84 390.37,-212.67 493.87,-406.01 62.1,-116.07 97.6,-248.54 98.4,-389.34 2.5,-461.6 -369.7,-837.8 -831.36,-840.3 -1.52,0 -3.09,0 -4.61,0"
         id="path878" /></clipPath><linearGradient
       x1="0"
       y1="0"
       x2="1"
       y2="0"
       gradientUnits="userSpaceOnUse"
       gradientTransform="matrix(-836.016,1448.02,1448.02,836.016,9988.53,2103.7)"
       spreadMethod="pad"
       id="linearGradient886"><stop
         style="stop-opacity:1;stop-color:#4a2e82"
         offset="0"
         id="stop882" /><stop
         style="stop-opacity:1;stop-color:#b02347"
         offset="1"
         id="stop884" /></linearGradient><clipPath
       clipPathUnits="userSpaceOnUse"
       id="clipPath902"><path
         d="m 7519.42,1086.7 v 0 l 1401.09,911.9 -291.82,448.4 291.83,-448.4 -1401.1,-911.9"
         id="path900" /></clipPath><linearGradient
       x1="0"
       y1="0"
       x2="1"
       y2="0"
       gradientUnits="userSpaceOnUse"
       gradientTransform="matrix(-864.373,1497.14,1497.14,864.373,8244.89,1417.7)"
       spreadMethod="pad"
       id="linearGradient910"><stop
         style="stop-opacity:1;stop-color:#cccccc"
         offset="0"
         id="stop904" /><stop
         style="stop-opacity:1;stop-color:#cccccc"
         offset="0.237968"
         id="stop906" /><stop
         style="stop-opacity:1;stop-color:#cccccc"
         offset="1"
         id="stop908" /></linearGradient><clipPath
       clipPathUnits="userSpaceOnUse"
       id="clipPath920"><path
         d="M 7519.42,1086.7 6683.49,2371 8084.58,3282.92 8628.69,2447 8920.51,1998.6 7519.41,1086.7"
         id="path918" /></clipPath><clipPath
       clipPathUnits="userSpaceOnUse"
       id="clipPath932"><path
         d="m 8221.37,2832.2 c 2.49,-461.6 -369.72,-837.9 -831.35,-840.4 -461.63,-2.5 -837.88,369.7 -840.37,831.4 -2.49,461.59 369.71,837.84 831.35,840.34 461.63,2.49 837.88,-369.72 840.37,-831.34 z"
         id="path930" /></clipPath><linearGradient
       x1="0"
       y1="0"
       x2="1"
       y2="0"
       gradientUnits="userSpaceOnUse"
       gradientTransform="matrix(-836.016,1448.02,1448.02,836.016,7803.52,2103.7)"
       spreadMethod="pad"
       id="linearGradient938"><stop
         style="stop-opacity:1;stop-color:#4a2e82"
         offset="0"
         id="stop934" /><stop
         style="stop-opacity:1;stop-color:#b02347"
         offset="1"
         id="stop936" /></linearGradient><clipPath
       clipPathUnits="userSpaceOnUse"
       id="clipPath950"><path
         d="m 11104,4467.11 -835.9,1284.3 -0.1,-0.01 -1401.03,-911.96 1401.13,911.97 835.9,-1284.3"
         id="path948" /></clipPath><linearGradient
       x1="0"
       y1="0"
       x2="1"
       y2="0"
       gradientUnits="userSpaceOnUse"
       gradientTransform="matrix(-864.373,1497.14,1497.14,864.373,10428.4,3886.18)"
       spreadMethod="pad"
       id="linearGradient958"><stop
         style="stop-opacity:1;stop-color:#cccccc"
         offset="0"
         id="stop952" /><stop
         style="stop-opacity:1;stop-color:#cccccc"
         offset="0.237968"
         id="stop954" /><stop
         style="stop-opacity:1;stop-color:#cccccc"
         offset="1"
         id="stop956" /></linearGradient><clipPath
       clipPathUnits="userSpaceOnUse"
       id="clipPath968"><path
         d="m 9814.13,3627.55 c -57.7,17.55 -118.06,29.04 -180.28,33.69 l -766.88,1178.2 1401.13,911.97 v -0.01 L 11104,4467.11 9814.13,3627.55"
         id="path966" /></clipPath><clipPath
       clipPathUnits="userSpaceOnUse"
       id="clipPath980"><path
         d="m 9702.9,3555.16 -69.05,106.08 c 62.22,-4.65 122.58,-16.14 180.28,-33.69 l -111.23,-72.39"
         id="path978" /></clipPath><clipPath
       clipPathUnits="userSpaceOnUse"
       id="clipPath992"><path
         d="m 10407.3,5300.3 c 2.5,-461.64 -369.8,-837.88 -831.38,-840.38 -461.64,-2.49 -837.88,369.72 -840.38,831.35 -2.49,461.64 369.72,837.88 831.35,840.38 461.61,2.49 837.91,-369.72 840.41,-831.35 z"
         id="path990" /></clipPath><linearGradient
       x1="0"
       y1="0"
       x2="1"
       y2="0"
       gradientUnits="userSpaceOnUse"
       gradientTransform="matrix(-836.016,1448.02,1448.02,836.016,9989.41,4571.78)"
       spreadMethod="pad"
       id="linearGradient998"><stop
         style="stop-opacity:1;stop-color:#4a2e82"
         offset="0"
         id="stop994" /><stop
         style="stop-opacity:1;stop-color:#b02347"
         offset="1"
         id="stop996" /></linearGradient></defs><sodipodi:namedview
     id="namedview4"
     pagecolor="#ffffff"
     bordercolor="#666666"
     borderopacity="1.0"
     inkscape:pageshadow="2"
     inkscape:pageopacity="0.0"
     inkscape:pagecheckerboard="0"
     showgrid="false"
     inkscape:zoom="0.94100549"
     inkscape:cx="3499.1354"
     inkscape:cy="701.98585"
     inkscape:window-width="1920"
     inkscape:window-height="1027"
     inkscape:window-x="-8"
     inkscape:window-y="-8"
     inkscape:window-maximized="1"
     inkscape:current-layer="g8" /><g
     id="g8"
     inkscape:groupmode="layer"
     inkscape:label="ink_ext_XXXXXX"
     transform="matrix(1.3333333,0,0,-1.3333333,0,1733.3333)"><path
       d="m 2455.06,864.13024 c 0,-46.165 -37.42,-83.589 -83.59,-83.589 -46.16,0 -83.59,37.424 -83.59,83.589 0,46.16 37.43,83.59 83.59,83.59 46.17,0 83.59,-37.43 83.59,-83.59"
       style="fill:none;fill-opacity:1;fill-rule:nonzero;stroke:none;stroke-width:0.1"
       id="path5301"
       inkscape:connector-curvature="0"
       inkscape:export-xdpi="27.551323"
       inkscape:export-ydpi="27.551323" /><g
       id="g5335"
       transform="translate(49.84,-158.94576)"><path
         d="m 2292.24,1000.28 c 0.01,-0.12 0.03,-0.24 0.05,-0.365 0.02,-0.164 0.04,-0.325 0.07,-0.486 0.02,-0.122 0.05,-0.243 0.07,-0.364 0.04,-0.173 0.09,-0.344 0.13,-0.513 0.03,-0.098 0.05,-0.197 0.08,-0.293 0.08,-0.246 0.17,-0.488 0.27,-0.725 0.04,-0.103 0.09,-0.204 0.14,-0.306 0.07,-0.15 0.14,-0.299 0.21,-0.445 0.06,-0.104 0.11,-0.206 0.17,-0.307 0.08,-0.149 0.17,-0.295 0.26,-0.438 l 0.17,-0.256 c 0.14,-0.213 0.3,-0.419 0.46,-0.619 l 0.18,-0.203 c 0.12,-0.139 0.24,-0.275 0.37,-0.407 l 0.22,-0.224 c 0.13,-0.122 0.26,-0.241 0.39,-0.355 l 0.23,-0.193 c 0.2,-0.164 0.41,-0.323 0.63,-0.469 l 0.16,-0.102 c 0.17,-0.113 0.35,-0.222 0.53,-0.325 0.1,-0.052 0.19,-0.1 0.29,-0.149 0.15,-0.078 0.3,-0.152 0.46,-0.222 0.1,-0.046 0.2,-0.092 0.3,-0.134 l 0.11,-0.046 -0.03,0.017 c 1.08,-0.426 2.25,-0.668 3.47,-0.668 5.21,0 9.44,4.224 9.44,9.437 v 43.91 c 0,3.4 -1.8,6.37 -4.49,8.03 l 0.03,-0.01 c -0.1,0.06 -0.21,0.12 -0.31,0.18 l -0.22,0.12 c -0.23,0.13 -0.46,0.24 -0.7,0.34 l -0.21,0.08 c -0.2,0.09 -0.4,0.16 -0.61,0.23 l -0.19,0.06 c -0.26,0.08 -0.53,0.15 -0.8,0.21 l -0.14,0.02 c -0.23,0.05 -0.47,0.08 -0.7,0.11 l -0.24,0.02 c -0.28,0.03 -0.56,0.05 -0.85,0.05 h -0.01 v 0 0 c -1.91,0 -3.69,-0.58 -5.18,-1.56 l -0.09,-0.05 -0.09,-0.07 c -2.46,-1.71 -4.07,-4.54 -4.07,-7.76 v -43.91 l 0.01,-0.2 c 0.01,-0.22 0.02,-0.43 0.03,-0.64"
         style="fill:#000000;fill-opacity:1;fill-rule:nonzero;stroke:none;stroke-width:0.1"
         id="path138"
         inkscape:connector-curvature="0" /><path
         d="m 2332.24,1000.25 c 0,-0.09 0.02,-0.19 0.03,-0.278 0.02,-0.199 0.05,-0.395 0.09,-0.589 0.02,-0.096 0.03,-0.191 0.05,-0.285 0.05,-0.219 0.11,-0.434 0.17,-0.646 l 0.05,-0.171 c 0.08,-0.262 0.17,-0.518 0.28,-0.769 l 0.1,-0.231 c 0.08,-0.178 0.16,-0.354 0.25,-0.526 l 0.14,-0.255 c 0.1,-0.172 0.2,-0.34 0.31,-0.504 l 0.13,-0.202 c 0.15,-0.22 0.31,-0.433 0.48,-0.638 l 0.15,-0.174 c 0.12,-0.149 0.26,-0.294 0.39,-0.434 l 0.22,-0.216 c 0.13,-0.123 0.26,-0.241 0.39,-0.356 l 0.23,-0.197 c 0.19,-0.152 0.38,-0.296 0.58,-0.433 l 0.25,-0.162 c 0.16,-0.101 0.32,-0.199 0.48,-0.29 0.11,-0.06 0.22,-0.116 0.32,-0.172 0.14,-0.067 0.27,-0.132 0.41,-0.194 0.12,-0.053 0.24,-0.107 0.36,-0.156 l 0.08,-0.038 -0.02,0.014 c 1.08,-0.424 2.24,-0.665 3.46,-0.665 5.21,0 9.44,4.224 9.44,9.437 v 43.91 c 0,3.4 -1.81,6.37 -4.5,8.03 l 0.04,-0.01 c -0.11,0.07 -0.23,0.13 -0.35,0.2 l -0.17,0.1 c -0.23,0.12 -0.46,0.23 -0.7,0.34 l -0.23,0.09 c -0.19,0.08 -0.38,0.15 -0.58,0.21 l -0.21,0.07 c -0.26,0.08 -0.53,0.15 -0.79,0.21 l -0.16,0.02 c -0.23,0.05 -0.46,0.08 -0.7,0.11 l -0.22,0.02 c -0.29,0.03 -0.57,0.05 -0.86,0.05 v 0 h -0.01 c -5.21,0 -9.43,-4.23 -9.43,-9.44 v -43.91 -0.03 c 0,-0.28 0.02,-0.56 0.05,-0.84"
         style="fill:#000000;fill-opacity:1;fill-rule:nonzero;stroke:none;stroke-width:0.1"
         id="path140"
         inkscape:connector-curvature="0" /></g><path
       d="m 2622.33,864.13024 c 0,-46.165 -37.42,-83.589 -83.58,-83.589 -46.17,0 -83.59,37.424 -83.59,83.589 0,46.16 37.42,83.59 83.59,83.59 46.16,0 83.58,-37.43 83.58,-83.59"
       style="fill:none;fill-opacity:1;fill-rule:nonzero;stroke:none;stroke-width:0.1"
       id="path5303"
       inkscape:connector-curvature="0"
       inkscape:export-xdpi="27.551323"
       inkscape:export-ydpi="27.551323" /><path
       inkscape:connector-curvature="0"
       id="path142"
       style="fill:#000000;fill-opacity:1;fill-rule:nonzero;stroke:none;stroke-width:0.1"
       d="m 2517.06,838.2899 c 0.04,-0.178 0.09,-0.349 0.15,-0.513 l 0.02,-0.035 c 0.07,-0.183 0.16,-0.356 0.27,-0.52 l 0.02,-0.036 c 0.1,-0.153 0.21,-0.296 0.34,-0.429 l 0.02,-0.03 c 0.27,-0.284 0.59,-0.516 0.94,-0.691 l 0.01,-0.007 c 0.93,-0.46 2.07,-0.502 3.1,0.078 l 44.61,25.12704 c 2.26,1.27 2.26,4.51 0,5.78 l -44.38,25 h 0.02 l -0.25,0.14 c -2.22,1.24 -4.95,-0.35 -4.95,-2.89 v -0.01 -50.24404 -0.011 c 0,-0.205 0.02,-0.401 0.06,-0.593 l 0.02,-0.116" /><path
       d="m 2622.39,697.30548 c 0.25,-46.164 -36.98,-83.789 -83.14,-84.038 -46.16,-0.249 -83.79,36.972 -84.04,83.135 -0.24,46.163 36.98,83.788 83.14,84.037 46.16,0.249 83.79,-36.971 84.04,-83.134"
       style="fill:none;fill-opacity:1;fill-rule:nonzero;stroke:none;stroke-width:0.1"
       id="path5305"
       inkscape:connector-curvature="0"
       inkscape:export-xdpi="27.551323"
       inkscape:export-ydpi="27.551323" /><path
       inkscape:connector-curvature="0"
       id="path144"
       style="fill:#000000;fill-opacity:1;fill-rule:nonzero;stroke:none;stroke-width:0.1"
       d="m 2584.86,699.87667 -36.46,23.226 0.02,-10e-4 -0.21,0.131 c -1.82,1.156 -4.05,-0.352 -4.03,-2.732 v -0.008 l 0.03,-6.116 0.09,-17.429 c 0,1.058 -0.47,2.112 -1.39,2.702 l -36.46,23.227 0.01,-10e-4 -0.21,0.13 c -1.81,1.157 -4.04,-0.351 -4.03,-2.732 v -0.007 l 0.25,-47.092 c 0,-0.192 0.03,-0.376 0.05,-0.555 l 0.02,-0.109 c 0.04,-0.167 0.08,-0.327 0.13,-0.48 l 0.01,-0.032 c 0.06,-0.172 0.14,-0.334 0.23,-0.487 l 0.02,-0.033 c 0.08,-0.143 0.17,-0.277 0.27,-0.401 l 0.03,-0.028 c 0.22,-0.265 0.48,-0.481 0.76,-0.643 l 0.01,-0.006 c 0.77,-0.428 1.7,-0.462 2.54,0.086 l 36.39,23.743 c 0.92,0.6 1.38,1.66 1.37,2.717 l 0.13,-23.535 v -0.01 c 0,-0.192 0.02,-0.375 0.05,-0.555 l 0.02,-0.11 c 0.03,-0.166 0.08,-0.326 0.13,-0.479 l 0.01,-0.033 c 0.06,-0.172 0.14,-0.333 0.22,-0.486 l 0.02,-0.034 c 0.09,-0.143 0.18,-0.277 0.28,-0.401 l 0.02,-0.027 c 0.22,-0.265 0.48,-0.482 0.77,-0.644 l 0.01,-0.006 c 0.76,-0.427 1.7,-0.461 2.54,0.087 l 36.39,23.743 c 1.84,1.199 1.82,4.24 -0.03,5.42" /><path
       d="m 2455.1076,697.30449 c 0.25,-46.163 -36.97,-83.788 -83.14,-84.037 -46.16,-0.25 -83.78,36.971 -84.03,83.135 -0.25,46.163 36.97,83.788 83.13,84.037 46.16,0.249 83.79,-36.971 84.04,-83.135"
       style="fill:none;fill-opacity:1;fill-rule:nonzero;stroke:none;stroke-width:0.1"
       id="path5307"
       inkscape:connector-curvature="0"
       inkscape:export-xdpi="27.551323"
       inkscape:export-ydpi="27.551323" /><path
       inkscape:connector-curvature="0"
       id="path146"
       style="fill:#000000;fill-opacity:1;fill-rule:nonzero;stroke:none;stroke-width:0.1"
       d="m 2327.5976,695.84627 c 0.16,-0.809 0.6,-1.556 1.32,-2.017 l 0.11,-0.069 0.13,-0.08 -0.01,0.001 36.42,-23.201 c 1.82,-1.158 4.05,0.353 4.04,2.732 l -0.13,23.507 v -0.142 l 0.02,-0.104 c 0.01,-0.116 0.02,-0.231 0.04,-0.345 l 0.03,-0.155 c 0.04,-0.151 0.08,-0.298 0.14,-0.443 l 0.07,-0.164 c 0.05,-0.112 0.1,-0.221 0.16,-0.327 l 0.07,-0.116 c 0.09,-0.142 0.2,-0.274 0.31,-0.399 l 0.02,-0.024 0.1,-0.094 0.15,-0.135 0.12,-0.09 0.17,-0.129 36.65,-23.349 c 1.82,-1.157 4.05,0.353 4.04,2.732 l -0.26,47.092 c -0.01,1.232 -0.61,2.22 -1.45,2.728 l -0.06,0.037 c -0.1,0.055 -0.2,0.104 -0.3,0.147 l -0.1,0.039 c -0.11,0.039 -0.22,0.071 -0.33,0.094 l -0.06,0.016 c -0.14,0.024 -0.27,0.035 -0.4,0.036 l -0.11,-0.005 c -0.1,-0.004 -0.2,-0.014 -0.31,-0.031 l -0.13,-0.027 c -0.1,-0.024 -0.2,-0.055 -0.3,-0.093 l -0.11,-0.039 c -0.13,-0.059 -0.27,-0.127 -0.4,-0.214 l -36.4,-23.743 -0.14,-0.104 -0.16,-0.121 -0.12,-0.12 -0.11,-0.11 -0.02,-0.026 c -0.12,-0.13 -0.23,-0.27 -0.32,-0.418 l -0.06,-0.105 c -0.06,-0.117 -0.12,-0.239 -0.18,-0.365 l -0.05,-0.144 c -0.06,-0.148 -0.1,-0.299 -0.13,-0.453 l -0.03,-0.196 c -0.02,-0.109 -0.03,-0.217 -0.04,-0.327 l -0.01,-0.114 -0.13,23.435 c 0,0.865 -0.3,1.61 -0.77,2.154 l 0.01,-0.003 -0.02,0.018 c -0.1,0.11 -0.2,0.212 -0.31,0.303 l -0.04,0.037 c -0.1,0.075 -0.19,0.143 -0.29,0.205 l -0.11,0.066 -0.26,0.123 -0.12,0.051 c -0.1,0.036 -0.21,0.064 -0.31,0.087 l -0.08,0.019 c -0.13,0.024 -0.27,0.036 -0.4,0.038 l -0.1,-0.005 c -0.1,-0.004 -0.21,-0.014 -0.32,-0.033 l -0.12,-0.025 c -0.1,-0.024 -0.21,-0.056 -0.31,-0.096 l -0.1,-0.037 c -0.14,-0.058 -0.28,-0.127 -0.41,-0.214 l -36.4,-23.743 c -0.34,-0.225 -0.62,-0.515 -0.84,-0.845 -0.48,-0.742 -0.63,-1.686 -0.45,-2.558" /><path
       d="m 2956.9513,696.85324 c 0,-46.164 -37.43,-83.587 -83.59,-83.587 -46.1701,0 -83.5901,37.423 -83.5901,83.587 0,46.164 37.42,83.588 83.5901,83.588 46.1599,0 83.59,-37.424 83.59,-83.588"
       style="fill:none;fill-opacity:1;fill-rule:nonzero;stroke:none;stroke-width:0.1"
       id="path5309"
       inkscape:connector-curvature="0"
       inkscape:export-xdpi="27.551323"
       inkscape:export-ydpi="27.551323" /><g
       id="g5389"
       transform="translate(-102.45875,-79.095758)"><path
         d="m 2943.56,751.405 c 0,-0.204 0.02,-0.399 0.05,-0.59 l 0.03,-0.122 c 0.04,-0.175 0.08,-0.344 0.15,-0.506 l 0.01,-0.04 c 0.08,-0.183 0.17,-0.355 0.27,-0.517 l 0.03,-0.041 c 0.1,-0.151 0.21,-0.292 0.33,-0.424 l 0.03,-0.033 c 0.27,-0.283 0.58,-0.515 0.93,-0.689 l 0.02,-0.008 c 0.92,-0.46 2.06,-0.501 3.09,0.078 l 44.62,25.127 c 2.25,1.269 2.25,4.514 0,5.784 l -44.38,24.995 0.01,-10e-4 -0.25,0.141 c -2.21,1.244 -4.94,-0.352 -4.94,-2.893 v -50.25 -0.003 -0.008"
         style="fill:#000000;fill-opacity:1;fill-rule:nonzero;stroke:none;stroke-width:0.1"
         id="path148"
         inkscape:connector-curvature="0" /><path
         d="m 3006.27,807.051 -0.05,0.014 c -0.18,0.057 -0.36,0.105 -0.55,0.144 l -0.03,0.005 c -0.4,0.08 -0.81,0.132 -1.22,0.132 -3.41,0 -6.17,-2.758 -6.17,-6.161 v -50.461 -0.006 -0.004 -0.022 c 0.01,-0.189 0.02,-0.375 0.03,-0.558 l 0.04,-0.244 c 0.01,-0.108 0.02,-0.216 0.04,-0.321 0.02,-0.096 0.05,-0.191 0.07,-0.285 l 0.06,-0.258 c 0.03,-0.102 0.07,-0.204 0.1,-0.304 l 0.08,-0.21 c 0.04,-0.109 0.08,-0.216 0.13,-0.322 l 0.07,-0.152 c 0.06,-0.119 0.12,-0.237 0.18,-0.351 l 0.02,-0.028 c 0.42,-0.738 0.99,-1.377 1.67,-1.883 v -10e-4 c 1.03,-0.764 2.3,-1.222 3.68,-1.222 3.4,0 6.16,2.759 6.16,6.161 v 50.462 c 0,2.391 -1.37,4.459 -3.36,5.48 l 0.05,-0.008 c -0.32,0.165 -0.65,0.294 -1,0.403"
         style="fill:#000000;fill-opacity:1;fill-rule:nonzero;stroke:none;stroke-width:0.1"
         id="path150"
         inkscape:connector-curvature="0" /></g><path
       d="m 2789.6713,696.85324 c 0,-46.164 -37.43,-83.587 -83.59,-83.587 -46.16,0 -83.59,37.423 -83.59,83.587 0,46.164 37.43,83.588 83.59,83.588 46.16,0 83.59,-37.424 83.59,-83.588"
       style="fill:none;fill-opacity:1;fill-rule:nonzero;stroke:none;stroke-width:0.1"
       id="path5311"
       inkscape:connector-curvature="0"
       inkscape:export-xdpi="27.551323"
       inkscape:export-ydpi="27.551323" /><g
       id="g5379"
       transform="translate(-51.138748,-79.849758)"><path
         d="m 2740.75,775.694 c 0.12,-0.983 0.68,-1.918 1.66,-2.474 l 44.62,-25.127 c 2.21,-1.246 4.95,0.353 4.95,2.892 v 50.254 c 0,1.198 -0.62,2.18 -1.49,2.76 l 0.02,-10e-4 -0.15,0.086 -0.06,0.036 c -0.11,0.063 -0.22,0.119 -0.34,0.17 l -0.01,0.004 c -0.89,0.385 -1.95,0.39 -2.92,-0.155 l -44.62,-25.125 c -1.27,-0.717 -1.82,-2.058 -1.66,-3.32"
         style="fill:#000000;fill-opacity:1;fill-rule:nonzero;stroke:none;stroke-width:0.1"
         id="path152"
         inkscape:connector-curvature="0" /><path
         d="m 2732.99,807.8 -0.08,0.023 c -0.17,0.053 -0.35,0.1 -0.53,0.138 l -0.06,0.01 c -0.39,0.077 -0.79,0.129 -1.2,0.129 -3.41,0 -6.16,-2.758 -6.16,-6.161 v -50.462 l 0.01,-0.192 c 0.05,-1.934 1,-3.64 2.44,-4.73 l 0.01,-0.007 c 1.03,-0.776 2.31,-1.241 3.7,-1.241 3.4,0 6.16,2.758 6.16,6.161 v 50.462 c 0,2.395 -1.37,4.466 -3.37,5.486 l 0.05,-0.009 c -0.31,0.16 -0.64,0.286 -0.97,0.393"
         style="fill:#000000;fill-opacity:1;fill-rule:nonzero;stroke:none;stroke-width:0.1"
         id="path154"
         inkscape:connector-curvature="0" /></g><path
       d="m 2789.6,864.12724 c 0,-46.162 -37.42,-83.586 -83.59,-83.586 -46.16,0 -83.58,37.424 -83.58,83.586 0,46.17 37.42,83.59 83.58,83.59 46.17,0 83.59,-37.42 83.59,-83.59"
       style="fill:none;fill-opacity:1;fill-rule:nonzero;stroke:none;stroke-width:0.1"
       id="path5313"
       inkscape:connector-curvature="0"
       inkscape:export-xdpi="27.551323"
       inkscape:export-ydpi="27.551323" /><g
       id="g5350"
       transform="translate(-51.35,-159.02076)"><path
         d="m 2717.65,995.72 44.62,25.13 c 2.25,1.27 2.25,4.51 0,5.78 l -44.62,25.13 c -0.54,0.3 -1.11,0.43 -1.67,0.43 -1.43,-0.02 -2.76,-0.99 -3.15,-2.42 -0.03,-0.11 -0.05,-0.22 -0.07,-0.33 l -0.03,-0.11 c -0.02,-0.15 -0.03,-0.3 -0.03,-0.46 v -50.258 c 0,-0.196 0.02,-0.385 0.06,-0.57 l 0.02,-0.136 c 0.04,-0.147 0.08,-0.289 0.13,-0.426 l 0.03,-0.104 c 0.14,-0.342 0.33,-0.651 0.56,-0.921 l 0.06,-0.059 c 0.11,-0.13 0.24,-0.251 0.38,-0.361 v -10e-4 c 1,-0.803 2.44,-1.031 3.71,-0.314"
         style="fill:#000000;fill-opacity:1;fill-rule:nonzero;stroke:none;stroke-width:0.1"
         id="path156"
         inkscape:connector-curvature="0" /><path
         d="m 2800.01,1054.31 -0.14,0.04 c -0.2,0.05 -0.39,0.09 -0.59,0.12 l -0.17,0.02 c -0.24,0.03 -0.49,0.05 -0.75,0.05 -3.4,0 -6.16,-2.75 -6.16,-6.16 v 0 -50.459 -0.001 c 0,-0.197 0.01,-0.391 0.03,-0.583 l 0.02,-0.18 c 0.02,-0.132 0.04,-0.262 0.06,-0.391 l 0.04,-0.203 c 0.03,-0.12 0.06,-0.238 0.09,-0.355 l 0.06,-0.199 c 0.04,-0.122 0.09,-0.241 0.14,-0.359 l 0.06,-0.165 c 0.07,-0.168 0.15,-0.334 0.24,-0.493 l 0.04,-0.067 c 0.07,-0.137 0.16,-0.272 0.24,-0.403 l 0.12,-0.161 c 0.06,-0.096 0.13,-0.19 0.21,-0.282 l 0.14,-0.166 0.22,-0.251 0.15,-0.153 c 0.09,-0.085 0.18,-0.166 0.27,-0.246 l 0.14,-0.119 c 0.14,-0.114 0.28,-0.223 0.43,-0.324 l 0.09,-0.056 c 0.13,-0.081 0.25,-0.159 0.38,-0.23 l 0.18,-0.09 c 0.1,-0.055 0.21,-0.109 0.32,-0.158 l 0.2,-0.08 c 0.11,-0.045 0.22,-0.087 0.34,-0.125 l 0.19,-0.062 0.09,-0.031 -0.01,0.011 c 0.53,-0.152 1.09,-0.239 1.68,-0.239 3.4,0 6.16,2.759 6.16,6.161 v 50.459 c 0,2.83 -1.91,5.21 -4.51,5.93"
         style="fill:#000000;fill-opacity:1;fill-rule:nonzero;stroke:none;stroke-width:0.1"
         id="path158"
         inkscape:connector-curvature="0" /><path
         d="m 2767.43,997.344 0.03,-0.208 c 0.01,-0.121 0.03,-0.242 0.05,-0.361 l 0.05,-0.224 c 0.02,-0.112 0.05,-0.221 0.08,-0.33 l 0.07,-0.221 c 0.04,-0.111 0.08,-0.221 0.12,-0.33 l 0.08,-0.191 c 0.06,-0.157 0.14,-0.311 0.22,-0.46 l 0.08,-0.135 c 0.06,-0.121 0.14,-0.24 0.21,-0.356 l 0.13,-0.181 0.2,-0.262 0.15,-0.18 0.21,-0.236 0.16,-0.165 0.26,-0.23 0.15,-0.133 c 0.14,-0.112 0.28,-0.219 0.42,-0.319 l 0.12,-0.071 c 0.11,-0.075 0.23,-0.148 0.35,-0.216 l 0.19,-0.095 c 0.1,-0.053 0.21,-0.105 0.31,-0.152 l 0.2,-0.083 c 0.11,-0.044 0.22,-0.085 0.34,-0.123 l 0.19,-0.064 0.1,-0.03 -0.02,0.011 c 0.54,-0.152 1.1,-0.239 1.68,-0.239 3.4,0 6.16,2.759 6.16,6.161 v 50.459 c 0,2.3 -1.26,4.31 -3.13,5.36 v 0.01 c -0.43,0.24 -0.89,0.43 -1.37,0.56 l -0.15,0.04 c -0.19,0.05 -0.39,0.09 -0.59,0.12 l -0.16,0.02 c -0.25,0.03 -0.5,0.05 -0.76,0.05 -3.4,0 -6.16,-2.75 -6.16,-6.16 v -50.459 -0.06 c 0.01,-0.174 0.01,-0.346 0.03,-0.517"
         style="fill:#000000;fill-opacity:1;fill-rule:nonzero;stroke:none;stroke-width:0.1"
         id="path160"
         inkscape:connector-curvature="0" /></g><path
       d="m 2455.16,529.56466 c 0,-46.164 -37.42,-83.587 -83.58,-83.587 -46.17,0 -83.59,37.423 -83.59,83.587 0,46.164 37.42,83.587 83.59,83.587 46.16,0 83.58,-37.423 83.58,-83.587"
       style="fill:none;fill-opacity:1;fill-rule:nonzero;stroke:none;stroke-width:0.1"
       id="path5315"
       inkscape:connector-curvature="0"
       inkscape:export-xdpi="27.551323"
       inkscape:export-ydpi="27.551323" /><g
       id="g5427"
       transform="translate(51.22)"><path
         d="m 2331.2,513.949 c 3.38,4.3 5.4,9.723 5.4,15.618 0,5.896 -2.02,11.319 -5.4,15.619 -0.13,0.165 -0.28,0.308 -0.43,0.434 v 0 c -0.13,0.109 -0.28,0.199 -0.43,0.278 l -0.14,0.065 c -0.11,0.05 -0.22,0.094 -0.34,0.128 l -0.18,0.047 c -0.11,0.024 -0.22,0.041 -0.32,0.052 l -0.2,0.016 -0.08,0.007 -0.21,-0.02 -0.25,-0.023 c -0.1,-0.018 -0.2,-0.049 -0.31,-0.079 l -0.21,-0.062 c -0.12,-0.049 -0.24,-0.114 -0.36,-0.182 l -0.13,-0.065 c -0.16,-0.102 -0.31,-0.22 -0.45,-0.361 -0.46,-0.461 -0.71,-1.051 -0.77,-1.658 -0.06,-0.64 0.11,-1.296 0.51,-1.846 l 0.05,-0.081 c 0.71,-0.899 1.33,-1.853 1.87,-2.848 1.54,-2.861 2.36,-6.077 2.36,-9.421 0,-4.506 -1.48,-8.783 -4.23,-12.268 l -0.07,-0.108 c -0.07,-0.095 -0.13,-0.192 -0.19,-0.294 l -0.08,-0.186 -0.11,-0.253 -0.04,-0.181 c -0.02,-0.093 -0.05,-0.186 -0.06,-0.281 l -0.01,-0.167 -0.02,-0.204 0.01,-0.086 0.02,-0.25 0.04,-0.244 0.08,-0.261 0.07,-0.215 c 0.04,-0.092 0.09,-0.18 0.14,-0.269 l 0.1,-0.183 0.17,-0.21 0.16,-0.195 c 0.14,-0.136 0.29,-0.248 0.44,-0.349 l 0.09,-0.051 c 0.12,-0.075 0.25,-0.14 0.39,-0.193 l 0.12,-0.045 c 0.13,-0.046 0.26,-0.08 0.4,-0.103 l 0.11,-0.023 0.06,-0.011 -0.01,0.009 c 0.9,-0.105 1.83,0.231 2.44,1.003"
         style="fill:#000000;fill-opacity:1;fill-rule:nonzero;stroke:none;stroke-width:0.1"
         id="path162"
         inkscape:connector-curvature="0" /><path
         d="m 2344.27,506.635 c 5.24,6.185 8.4,14.189 8.4,22.932 0,8.744 -3.16,16.747 -8.4,22.933 -0.12,0.139 -0.25,0.259 -0.38,0.367 l 0.01,-10e-4 -0.03,0.019 -0.13,0.083 c -0.1,0.075 -0.21,0.145 -0.33,0.203 l -0.16,0.069 c -0.11,0.046 -0.22,0.088 -0.33,0.119 l -0.18,0.041 c -0.11,0.023 -0.22,0.039 -0.33,0.048 l -0.19,0.009 c -0.11,0 -0.22,-0.006 -0.33,-0.019 l -0.2,-0.027 c -0.1,-0.019 -0.2,-0.049 -0.3,-0.08 l -0.21,-0.068 c -0.09,-0.038 -0.18,-0.088 -0.27,-0.137 l -0.2,-0.112 c -0.1,-0.062 -0.18,-0.138 -0.27,-0.211 l -0.15,-0.129 h -0.01 v -10e-4 0 c -0.99,-0.991 -1.07,-2.582 -0.16,-3.65 4.62,-5.427 7.14,-12.246 7.14,-19.457 0,-6.807 -2.25,-13.267 -6.39,-18.543 -0.24,-0.307 -0.49,-0.612 -0.75,-0.912 -0.11,-0.132 -0.21,-0.275 -0.29,-0.423 -0.58,-1.033 -0.42,-2.36 0.45,-3.228 h 0.01 l 0.03,-0.029 c 0.12,-0.114 0.24,-0.213 0.37,-0.301 l 0.16,-0.089 c 0.1,-0.06 0.2,-0.113 0.31,-0.158 l 0.16,-0.061 c 0.12,-0.043 0.25,-0.075 0.38,-0.099 l 0.1,-0.022 0.08,-0.015 -0.02,0.011 c 0.88,-0.106 1.79,0.207 2.41,0.938"
         style="fill:#000000;fill-opacity:1;fill-rule:nonzero;stroke:none;stroke-width:0.1"
         id="path164"
         inkscape:connector-curvature="0" /><path
         d="m 2357.37,499.28 c 7.13,8.071 11.45,18.674 11.45,30.287 0,11.614 -4.32,22.217 -11.45,30.287 -0.1,0.119 -0.22,0.217 -0.34,0.312 h 0.01 l -0.03,0.019 -0.25,0.168 -0.2,0.116 -0.24,0.103 -0.25,0.083 -0.23,0.052 c -0.1,0.017 -0.19,0.028 -0.29,0.035 l -0.21,0.008 c -0.11,0 -0.21,-0.009 -0.31,-0.021 l -0.2,-0.029 c -0.11,-0.022 -0.22,-0.055 -0.33,-0.093 l -0.16,-0.052 c -0.13,-0.052 -0.25,-0.118 -0.37,-0.191 l -0.1,-0.052 c -0.15,-0.099 -0.29,-0.212 -0.43,-0.345 v -0.003 0 -0.001 c -0.52,-0.517 -0.78,-1.192 -0.78,-1.871 -0.02,-0.656 0.21,-1.318 0.68,-1.846 0.85,-0.967 1.65,-1.974 2.4,-3.01 1.38,-1.896 2.59,-3.907 3.61,-6.022 0.31,-0.637 0.61,-1.279 0.89,-1.934 0.77,-1.822 1.4,-3.686 1.89,-5.585 0.85,-3.285 1.28,-6.673 1.28,-10.128 0,-3.576 -0.47,-7.08 -1.38,-10.471 -0.48,-1.779 -1.07,-3.528 -1.79,-5.238 -0.41,-0.957 -0.85,-1.893 -1.32,-2.811 -0.88,-1.693 -1.87,-3.315 -2.97,-4.862 -0.82,-1.138 -1.68,-2.24 -2.61,-3.292 -0.46,-0.515 -0.68,-1.153 -0.68,-1.789 -0.01,-0.701 0.25,-1.4 0.78,-1.932 v -0.001 l 0.05,-0.039 c 0.11,-0.107 0.23,-0.202 0.35,-0.286 l 0.17,-0.096 c 0.09,-0.055 0.18,-0.104 0.28,-0.146 l 0.19,-0.073 c 0.1,-0.032 0.19,-0.057 0.29,-0.079 l 0.21,-0.042 0.06,-0.013 v 0.009 c 0.84,-0.102 1.72,0.184 2.33,0.874"
         style="fill:#000000;fill-opacity:1;fill-rule:nonzero;stroke:none;stroke-width:0.1"
         id="path166"
         inkscape:connector-curvature="0" /><path
         d="m 2272.95,512.551 c 0.04,-0.204 0.09,-0.402 0.16,-0.593 l 0.02,-0.057 c 0.07,-0.191 0.16,-0.375 0.26,-0.55 l 0.02,-0.027 c 0.21,-0.364 0.48,-0.69 0.8,-0.965 v -0.005 c 0.16,-0.135 0.33,-0.256 0.5,-0.365 l 0.04,-0.019 c 0.17,-0.106 0.36,-0.199 0.55,-0.275 l 0.03,-0.008 c 0.42,-0.165 0.88,-0.258 1.37,-0.258 h 17.46 c 0.63,0 1.25,-0.158 1.81,-0.459 l 19.1,-10.33 c 2.54,-1.373 5.63,0.465 5.63,3.354 v 55.147 c 0,1.376 -0.7,2.507 -1.71,3.173 l 0.02,-0.002 -0.1,0.056 -0.19,0.111 -0.24,0.121 -0.2,0.086 -0.25,0.09 -0.22,0.061 -0.25,0.058 -0.25,0.033 -0.23,0.023 c -0.1,0.005 -0.2,10e-4 -0.29,-10e-4 l -0.21,-0.006 c -0.11,-0.009 -0.22,-0.029 -0.34,-0.048 l -0.16,-0.027 c -0.14,-0.031 -0.28,-0.073 -0.42,-0.121 l -0.08,-0.026 c -0.17,-0.064 -0.34,-0.138 -0.51,-0.227 l -3.85,-2.084 -15.25,-8.243 c -0.17,-0.095 -0.35,-0.17 -0.54,-0.236 -0.41,-0.146 -0.84,-0.226 -1.27,-0.226 h -17.46 c -2.11,0 -3.82,-1.707 -3.82,-3.812 v -32.653 c 0,-0.22 0.03,-0.436 0.06,-0.646 l 0.01,-0.044"
         style="fill:#000000;fill-opacity:1;fill-rule:nonzero;stroke:none;stroke-width:0.1"
         id="path168"
         inkscape:connector-curvature="0" /></g><path
       d="m 2622.43,529.567 c 0,-46.164 -37.42,-83.587 -83.59,-83.587 -46.16,0 -83.58,37.423 -83.58,83.587 0,46.164 37.42,83.587 83.58,83.587 46.17,0 83.59,-37.423 83.59,-83.587"
       style="fill:none;fill-opacity:1;fill-rule:nonzero;stroke:none;stroke-width:0.1"
       id="path5317"
       inkscape:connector-curvature="0"
       inkscape:export-xdpi="27.551323"
       inkscape:export-ydpi="27.551323" /><g
       id="g5415"
       transform="translate(0,0.00233968)"><path
         d="m 2562.3,517.299 -0.03,-0.052 c -0.09,-0.113 -0.17,-0.23 -0.23,-0.352 l -0.07,-0.165 c -0.04,-0.09 -0.09,-0.181 -0.12,-0.275 l -0.04,-0.166 c -0.02,-0.099 -0.05,-0.196 -0.06,-0.297 l -0.01,-0.153 -0.02,-0.214 0.01,-0.091 0.02,-0.234 0.04,-0.258 0.07,-0.245 0.08,-0.231 0.13,-0.251 0.11,-0.2 0.15,-0.184 0.18,-0.219 c 0.14,-0.136 0.29,-0.249 0.44,-0.35 l 0.08,-0.048 c 0.13,-0.077 0.26,-0.142 0.4,-0.196 l 0.12,-0.044 c 0.13,-0.046 0.27,-0.08 0.4,-0.104 l 0.11,-0.021 0.06,-0.012 -0.01,0.009 c 0.9,-0.105 1.83,0.231 2.44,1.003 3.38,4.3 5.4,9.723 5.4,15.618 0,5.896 -2.02,11.319 -5.4,15.619 -0.13,0.165 -0.28,0.308 -0.43,0.434 v 0 c -0.13,0.109 -0.28,0.199 -0.43,0.277 l -0.15,0.068 c -0.11,0.049 -0.21,0.092 -0.33,0.126 l -0.18,0.048 c -0.11,0.023 -0.21,0.04 -0.32,0.05 l -0.2,0.017 -0.08,0.007 -0.21,-0.02 -0.25,-0.023 c -0.1,-0.019 -0.21,-0.05 -0.31,-0.08 l -0.2,-0.061 c -0.13,-0.05 -0.26,-0.116 -0.38,-0.187 l -0.12,-0.059 c -0.15,-0.102 -0.31,-0.221 -0.45,-0.362 -0.52,-0.521 -0.78,-1.204 -0.78,-1.894 0,-0.506 0.14,-1.008 0.42,-1.456 l 0.15,-0.235 c 1.28,-1.62 2.28,-3.413 2.99,-5.318 0.82,-2.195 1.25,-4.539 1.25,-6.951 0,-4.506 -1.49,-8.783 -4.24,-12.268"
         style="fill:#000000;fill-opacity:1;fill-rule:nonzero;stroke:none;stroke-width:0.1"
         id="path170"
         inkscape:connector-curvature="0" /><path
         d="m 2554.26,560.366 -0.2,0.114 -0.22,0.119 -0.22,0.088 -0.24,0.088 -0.23,0.063 -0.24,0.056 -0.25,0.034 -0.23,0.023 c -0.1,0.005 -0.19,10e-4 -0.29,-10e-4 l -0.21,-0.006 c -0.11,-0.008 -0.22,-0.029 -0.33,-0.048 l -0.17,-0.027 c -0.14,-0.03 -0.27,-0.071 -0.4,-0.116 l -0.11,-0.032 c -0.16,-0.063 -0.33,-0.137 -0.5,-0.226 l -2.31,-1.254 -16.79,-9.073 c -0.19,-0.104 -0.39,-0.183 -0.59,-0.252 -0.39,-0.134 -0.8,-0.21 -1.22,-0.21 h -17.46 c -2.11,0 -3.81,-1.707 -3.81,-3.812 v -32.653 c 0,-0.219 0.02,-0.431 0.05,-0.639 l 0.01,-0.055 c 0.04,-0.201 0.09,-0.396 0.16,-0.584 l 0.02,-0.067 c 0.07,-0.188 0.16,-0.37 0.26,-0.542 l 0.02,-0.035 c 0.21,-0.36 0.48,-0.683 0.79,-0.956 l 0.01,-0.011 c 0.16,-0.134 0.33,-0.253 0.5,-0.361 l 0.04,-0.022 c 0.17,-0.106 0.36,-0.198 0.55,-0.273 l 0.03,-0.01 c 0.43,-0.165 0.89,-0.257 1.37,-0.257 h 17.46 c 0.63,0 1.25,-0.158 1.81,-0.459 l 19.1,-10.33 c 2.54,-1.373 5.63,0.465 5.63,3.354 v 55.147 c 0,1.376 -0.7,2.507 -1.71,3.173 l 0.02,-0.002 -0.1,0.054"
         style="fill:#000000;fill-opacity:1;fill-rule:nonzero;stroke:none;stroke-width:0.1"
         id="path172"
         inkscape:connector-curvature="0" /></g><path
       d="m 2789.71,529.62021 c 0,-46.165 -37.43,-83.588 -83.59,-83.588 -46.16,0 -83.59,37.423 -83.59,83.588 0,46.164 37.43,83.586 83.59,83.586 46.16,0 83.59,-37.422 83.59,-83.586"
       style="fill:none;fill-opacity:1;fill-rule:nonzero;stroke:none;stroke-width:0.1"
       id="path5319"
       inkscape:connector-curvature="0"
       inkscape:export-xdpi="27.551323"
       inkscape:export-ydpi="27.551323" /><g
       id="g5404"
       transform="translate(-51.35,1.5)"><path
         d="m 2737.43,509.802 45.57,45.569 v 1.804 c 0,1.375 -0.7,2.507 -1.71,3.173 l 0.01,-10e-4 -0.06,0.036 c -0.09,0.055 -0.18,0.105 -0.27,0.154 l -0.16,0.086 c -0.09,0.042 -0.18,0.078 -0.27,0.112 l -0.19,0.07 c -0.09,0.029 -0.18,0.051 -0.28,0.074 l -0.2,0.048 c -0.09,0.016 -0.19,0.026 -0.28,0.036 l -0.21,0.022 c -0.1,0.005 -0.19,10e-4 -0.29,-10e-4 l -0.21,-0.006 c -0.1,-0.008 -0.21,-0.027 -0.31,-0.044 l -0.2,-0.032 c -0.12,-0.027 -0.24,-0.067 -0.36,-0.107 l -0.14,-0.041 c -0.16,-0.063 -0.33,-0.137 -0.49,-0.225 l -5.97,-3.225 -13.14,-7.103 c -0.14,-0.078 -0.29,-0.146 -0.44,-0.205 -0.44,-0.168 -0.9,-0.256 -1.37,-0.256 H 2739 c -2.11,0 -3.81,-1.707 -3.81,-3.812 v -32.653 c 0,-1.546 0.92,-2.876 2.24,-3.473"
         style="fill:#000000;fill-opacity:1;fill-rule:nonzero;stroke:none;stroke-width:0.1"
         id="path174"
         inkscape:connector-curvature="0" /><path
         d="m 2764.35,511.907 -4.02,-4.016 v -0.001 l 3.96,-2.139 13.09,-7.079 0.16,-0.074 c 0.11,-0.053 0.22,-0.108 0.33,-0.149 l 0.12,-0.036 c 2.4,-0.807 5.01,0.956 5.01,3.614 v 26.585 0.002 1.943 -0.002 0.005 l -18.65,-18.653"
         style="fill:#000000;fill-opacity:1;fill-rule:nonzero;stroke:none;stroke-width:0.1"
         id="path176"
         inkscape:connector-curvature="0" /><path
         d="m 2795.7,555.658 -0.18,0.141 h 0.02 l -0.1,0.069 -0.23,0.156 -0.19,0.104 -0.22,0.098 -0.24,0.069 -0.2,0.05 -0.27,0.025 -0.19,0.01 c -0.1,-0.002 -0.19,-0.015 -0.28,-0.027 l -0.18,-0.024 c -0.1,-0.02 -0.19,-0.053 -0.28,-0.084 l -0.17,-0.054 c -0.1,-0.041 -0.19,-0.095 -0.28,-0.15 l -0.14,-0.073 c -0.13,-0.089 -0.26,-0.191 -0.38,-0.308 v -0.002 L 2736,499.47 c -0.34,-0.341 -0.55,-0.758 -0.65,-1.196 -0.04,-0.183 -0.07,-0.37 -0.07,-0.558 0,-0.435 0.12,-0.866 0.35,-1.251 l 0.06,-0.111 0.1,-0.128 0.21,-0.258 0.01,-0.008 c 0.12,-0.111 0.24,-0.209 0.36,-0.294 l 0.13,-0.072 c 0.09,-0.055 0.18,-0.107 0.28,-0.149 l 0.16,-0.055 c 0.09,-0.033 0.18,-0.062 0.27,-0.082 l 0.18,-0.032 0.15,-0.025 -0.01,0.013 c 0.71,-0.066 1.43,0.162 1.98,0.704 l 56.19,56.188 c 0.96,0.967 0.96,2.535 0,3.502"
         style="fill:#000000;fill-opacity:1;fill-rule:nonzero;stroke:none;stroke-width:0.1"
         id="path178"
         inkscape:connector-curvature="0" /></g><path
       d="m 2956.88,864.13324 c 0,-46.169 -37.43,-83.592 -83.59,-83.592 -46.16,0 -83.59,37.423 -83.59,83.592 0,46.16 37.43,83.58 83.59,83.58 46.16,0 83.59,-37.42 83.59,-83.58"
       style="fill:none;fill-opacity:1;fill-rule:nonzero;stroke:none;stroke-width:0.1"
       id="path5321"
       inkscape:connector-curvature="0"
       inkscape:export-xdpi="27.551323"
       inkscape:export-ydpi="27.551323" /><path
       inkscape:connector-curvature="0"
       id="path180"
       style="fill:#000000;fill-opacity:1;fill-rule:nonzero;stroke:none;stroke-width:0.1"
       d="m 2843.925,840.36424 c 0.01,-0.093 0.03,-0.183 0.04,-0.274 0.03,-0.145 0.05,-0.289 0.08,-0.431 0.03,-0.092 0.05,-0.182 0.07,-0.273 0.04,-0.141 0.09,-0.28 0.13,-0.416 l 0.09,-0.243 c 0.07,-0.154 0.13,-0.304 0.21,-0.452 l 0.08,-0.171 c 0.11,-0.205 0.23,-0.405 0.36,-0.596 v -0.01 c 0.13,-0.185 0.27,-0.362 0.41,-0.531 l 0.14,-0.151 c 0.1,-0.117 0.21,-0.231 0.33,-0.34 l 0.19,-0.174 c 0.1,-0.091 0.21,-0.178 0.32,-0.262 l 0.14,-0.113 -0.02,0.02 c 1.05,-0.768 2.34,-1.226 3.74,-1.226 h 46.11 c 3.51,0 6.35,2.844 6.35,6.352 v 46.11 c 0,1.4 -0.45,2.69 -1.22,3.74 l 0.02,-0.02 -0.09,0.12 c -0.1,0.12 -0.2,0.24 -0.3,0.35 l -0.16,0.18 c -0.11,0.12 -0.22,0.23 -0.34,0.33 l -0.15,0.14 c -0.16,0.14 -0.33,0.27 -0.51,0.39 l -0.03,0.03 c -0.19,0.13 -0.39,0.24 -0.6,0.35 l -0.16,0.08 c -0.16,0.08 -0.31,0.15 -0.46,0.21 l -0.23,0.08 c -0.15,0.06 -0.29,0.1 -0.44,0.14 l -0.25,0.06 c -0.16,0.04 -0.32,0.07 -0.48,0.09 l -0.22,0.04 c -0.24,0.03 -0.48,0.04 -0.73,0.04 v 0 h -46.11 v 0 c -1.75,0 -3.34,-0.71 -4.49,-1.86 -1.15,-1.15 -1.86,-2.74 -1.86,-4.49 v -46.11 l 0.01,-0.13 c 0,-0.195 0.01,-0.389 0.03,-0.579" /><path
       d="m 2455.09,362.29876 c 0,-46.16 -37.42,-83.58 -83.58,-83.58 -46.17,0 -83.59,37.42 -83.59,83.58 0,46.168 37.42,83.592 83.59,83.592 46.16,0 83.58,-37.424 83.58,-83.592"
       style="fill:none;fill-opacity:1;fill-rule:nonzero;stroke:none;stroke-width:0.1"
       id="path5323"
       inkscape:connector-curvature="0"
       inkscape:export-xdpi="27.551323"
       inkscape:export-ydpi="27.551323" /><g
       id="g5440"
       transform="translate(51.16,79.627912)"><path
         d="m 2313.62,277.62 v 0.01 l -0.5,0.99 -0.73,-1.46 c -1.49,-2.97 -3.28,-5.5 -5.28,-7.5 -0.33,-0.33 -0.67,-0.65 -1.01,-0.95 -3.09,-2.73 -6.59,-4.23 -10.13,-4.23 h -20.41 c -2.29,0 -4.15,-1.86 -4.15,-4.15 0,-0.21 0.02,-0.42 0.05,-0.62 l 0.02,-0.12 c 0.03,-0.19 0.08,-0.38 0.14,-0.57 l 0.03,-0.09 c 0.06,-0.18 0.14,-0.35 0.22,-0.51 l 0.02,-0.05 c 0.1,-0.17 0.2,-0.33 0.31,-0.49 l 0.07,-0.09 c 0.12,-0.15 0.25,-0.29 0.38,-0.43 l 0.06,-0.05 c 0.13,-0.12 0.26,-0.23 0.4,-0.34 l 0.08,-0.06 c 0.16,-0.1 0.32,-0.2 0.49,-0.28 l 0.11,-0.06 c 0.18,-0.08 0.36,-0.16 0.54,-0.21 l 0.01,-0.01 v 0.01 c 0.38,-0.12 0.79,-0.19 1.22,-0.19 h 20.41 c 8.38,0 16.29,5 21.77,13.58 -0.64,1.04 -1.24,2.13 -1.8,3.25 l -2.32,4.62"
         style="fill:#000000;fill-opacity:1;fill-rule:nonzero;stroke:none;stroke-width:0.1"
         id="path182"
         inkscape:connector-curvature="0" /><path
         d="m 2376.65,306.022 -18.78,10.578 v 0 l -0.17,0.098 c -0.21,0.117 -0.43,0.201 -0.65,0.255 -0.21,0.053 -0.43,0.075 -0.65,0.07 -0.86,-0.021 -1.66,-0.49 -2.1,-1.226 -0.05,-0.093 -0.1,-0.189 -0.15,-0.289 -0.12,-0.301 -0.2,-0.636 -0.2,-0.995 v -10e-4 -6.527 h -10.91 c -8.01,0 -15.59,-4.563 -21.02,-12.455 0.36,-0.65 0.71,-1.31 1.05,-1.99 l 3.41,-6.81 0.13,0.27 c 3.98,7.94 10.12,12.68 16.43,12.68 h 10.91 v -0.35 -6.17 c 0,-0.15 0.02,-0.28 0.04,-0.41 l 0.02,-0.13 c 0.02,-0.09 0.05,-0.18 0.08,-0.26 l 0.04,-0.13 c 0.04,-0.09 0.08,-0.18 0.13,-0.27 l 0.03,-0.07 c 0.07,-0.11 0.14,-0.21 0.22,-0.31 l 0.06,-0.07 0.2,-0.21 0.08,-0.06 c 0.08,-0.07 0.17,-0.14 0.26,-0.2 l 0.04,-0.02 c 0.73,-0.45 1.69,-0.53 2.55,-0.05 l 18.95,10.676 c 1.71,0.96 1.71,3.416 0,4.376"
         style="fill:#000000;fill-opacity:1;fill-rule:nonzero;stroke:none;stroke-width:0.1"
         id="path184"
         inkscape:connector-curvature="0" /><path
         d="m 2376.65,263.7 -18.78,10.58 v 0 l -0.17,0.1 c -0.4,0.22 -0.82,0.33 -1.23,0.33 -1.32,0 -2.52,-1.06 -2.52,-2.52 v 0 -6.52 h -10.91 c -0.41,0 -0.83,0.02 -1.24,0.06 -0.12,0.01 -0.25,0.04 -0.37,0.05 -0.29,0.04 -0.57,0.08 -0.86,0.13 -0.13,0.03 -0.27,0.07 -0.41,0.1 -0.27,0.06 -0.55,0.13 -0.82,0.21 -0.12,0.03 -0.24,0.08 -0.36,0.11 -0.3,0.1 -0.6,0.21 -0.9,0.32 -4.46,1.77 -8.55,5.87 -11.47,11.7 l -2.16,4.32 -4.63,9.24 -0.01,0.02 c -4.29,8.556 -10.77,14.375 -18.02,16.424 l -0.19,0.055 c -0.3,0.08 -0.59,0.154 -0.89,0.222 l -0.19,0.046 c -0.36,0.077 -0.71,0.147 -1.06,0.206 l -0.11,0.016 c -0.31,0.05 -0.62,0.092 -0.93,0.129 -0.11,0.012 -0.22,0.023 -0.32,0.034 -0.26,0.026 -0.51,0.046 -0.76,0.063 -0.11,0.007 -0.22,0.015 -0.32,0.021 -0.35,0.017 -0.7,0.028 -1.04,0.028 l -0.01,0.001 h -20.41 c -2.29,0 -4.15,-1.86 -4.15,-4.154 0,-0.21 0.02,-0.415 0.05,-0.617 l 0.01,-0.116 c 0.04,-0.195 0.09,-0.386 0.15,-0.57 l 0.03,-0.084 c 0.06,-0.183 0.14,-0.36 0.23,-0.53 l 0.01,-0.028 c 0.1,-0.177 0.2,-0.345 0.32,-0.505 l 0.06,-0.072 c 0.12,-0.158 0.25,-0.309 0.39,-0.447 l 0.03,-0.024 c 0.13,-0.134 0.28,-0.257 0.44,-0.371 l 0.05,-0.04 c 0.16,-0.111 0.33,-0.21 0.5,-0.299 l 0.1,-0.047 c 0.18,-0.084 0.36,-0.16 0.55,-0.218 l 0.01,-0.004 v 0.002 c 0.38,-0.119 0.79,-0.184 1.22,-0.184 h 20.41 c 2.33,0 4.64,-0.652 6.83,-1.867 l 0.2,-0.12 c 0.31,-0.18 0.61,-0.36 0.91,-0.56 l 0.1,-0.06 c 0.33,-0.22 0.65,-0.46 0.98,-0.71 l 0.17,-0.14 c 0.29,-0.22 0.57,-0.45 0.84,-0.69 l 0.14,-0.12 c 0.31,-0.27 0.62,-0.56 0.92,-0.87 l 0.15,-0.14 c 0.26,-0.27 0.52,-0.55 0.78,-0.83 l 0.16,-0.18 c 0.29,-0.33 0.58,-0.67 0.86,-1.03 l 0.1,-0.14 c 0.25,-0.31 0.49,-0.63 0.73,-0.96 l 0.17,-0.25 c 0.27,-0.38 0.53,-0.77 0.78,-1.17 l 0.07,-0.11 c 0.23,-0.36 0.45,-0.74 0.67,-1.12 0.06,-0.1 0.12,-0.21 0.18,-0.32 0.23,-0.42 0.46,-0.85 0.68,-1.29 l 2.76,-5.52 4.03,-8.04 c 0.21,-0.41 0.42,-0.81 0.63,-1.21 0.21,-0.39 0.43,-0.77 0.65,-1.14 0.06,-0.11 0.13,-0.22 0.19,-0.33 0.17,-0.28 0.34,-0.56 0.51,-0.83 0.07,-0.1 0.13,-0.2 0.19,-0.3 0.23,-0.35 0.46,-0.7 0.69,-1.04 l 0.16,-0.22 c 0.19,-0.27 0.38,-0.54 0.58,-0.8 0.08,-0.11 0.16,-0.22 0.24,-0.32 0.19,-0.26 0.39,-0.51 0.59,-0.76 l 0.17,-0.22 c 0.26,-0.31 0.51,-0.61 0.77,-0.9 l 0.23,-0.26 c 0.19,-0.22 0.39,-0.44 0.6,-0.65 l 0.25,-0.27 c 0.26,-0.27 0.52,-0.53 0.79,-0.79 l 0.06,-0.06 c 0.27,-0.26 0.55,-0.51 0.83,-0.76 l 0.25,-0.23 c 0.23,-0.19 0.45,-0.38 0.67,-0.56 l 0.23,-0.19 c 0.3,-0.24 0.59,-0.47 0.89,-0.69 l 0.17,-0.12 c 0.25,-0.18 0.5,-0.36 0.76,-0.53 0.09,-0.06 0.18,-0.12 0.27,-0.18 0.26,-0.17 0.51,-0.33 0.77,-0.49 l 0.18,-0.11 c 0.31,-0.19 0.62,-0.36 0.94,-0.54 l 0.25,-0.13 c 0.25,-0.13 0.49,-0.25 0.73,-0.37 0.1,-0.05 0.2,-0.1 0.3,-0.14 0.3,-0.14 0.6,-0.28 0.91,-0.41 l 0.07,-0.03 -0.02,0.01 c 2.68,-1.11 5.49,-1.7 8.36,-1.7 h 10.91 v -0.35 -6.17 0 c 0,-0.17 0.02,-0.34 0.05,-0.5 l 0.04,-0.14 c 0.03,-0.11 0.06,-0.21 0.1,-0.31 l 0.07,-0.16 0.15,-0.25 0.1,-0.14 0.18,-0.22 0.12,-0.12 0.23,-0.18 0.13,-0.1 c 0.09,-0.06 0.19,-0.1 0.29,-0.15 0.11,-0.05 0.23,-0.1 0.36,-0.13 l 0.12,-0.04 h -0.01 c 0.19,-0.04 0.39,-0.07 0.59,-0.07 0.41,0 0.83,0.09 1.23,0.32 l 18.95,10.68 c 1.71,0.96 1.71,3.42 0,4.37"
         style="fill:#000000;fill-opacity:1;fill-rule:nonzero;stroke:none;stroke-width:0.1"
         id="path186"
         inkscape:connector-curvature="0" /></g><path
       d="m 2622.36,362.30076 c 0,-46.16 -37.42,-83.58 -83.58,-83.58 -46.17,0 -83.59,37.42 -83.59,83.58 0,46.166 37.42,83.59 83.59,83.59 46.16,0 83.58,-37.424 83.58,-83.59"
       style="fill:none;fill-opacity:1;fill-rule:nonzero;stroke:none;stroke-width:0.1"
       id="path5325"
       inkscape:connector-curvature="0"
       inkscape:export-xdpi="27.551323"
       inkscape:export-ydpi="27.551323" /><path
       inkscape:connector-curvature="0"
       id="path188"
       style="fill:#000000;fill-opacity:1;fill-rule:nonzero;stroke:none;stroke-width:0.1"
       d="m 2548.36,403.47848 c 0.17,-0.03 0.33,-0.056 0.49,-0.088 -3.49,0.789 -7.1,1.138 -10.72,1.008 -1.62,-0.058 -3.01,-0.925 -3.81,-2.197 -0.48,-0.764 -0.74,-1.674 -0.71,-2.644 0.09,-2.58 2.25,-4.603 4.84,-4.506 3.42,0.116 6.78,-0.285 9.97,-1.169 l 0.11,-0.032 c 5.32,-1.495 10.2,-4.336 14.25,-8.381 10.38,-10.383 12.33,-26.053 5.84,-38.423 -1.5,-2.85 -3.45,-5.53 -5.84,-7.93 -6.19,-6.19 -14.42,-9.6 -23.18,-9.6 -2.09,0 -4.14,0.2 -6.15,0.58 l 0.25,-0.05 c -6.51,1.18 -12.5,4.29 -17.28,9.07 -11.15,11.15 -12.57,28.39 -4.27,41.1 l 3.81,-3.81 c 0.77,-0.76 2.08,-0.42 2.37,0.63 l 5.9,21.099 c 0.16,0.603 -0.08,1.17 -0.52,1.503 l 0.02,0.003 -0.11,0.067 -0.08,0.05 c -0.09,0.049 -0.18,0.089 -0.28,0.119 l -0.03,0.011 c -0.23,0.065 -0.49,0.076 -0.75,0.002 l -21.1,-5.897 c -0.26,-0.073 -0.48,-0.212 -0.65,-0.39 -0.5,-0.528 -0.55,-1.41 0.02,-1.987 l 4.68,-4.68 c -0.84,-1.157 -1.6,-2.354 -2.32,-3.582 -3.67,-6.338 -5.64,-13.548 -5.64,-21.068 0,-11.25 4.38,-21.83 12.34,-29.78 0.34,-0.34 0.69,-0.67 1.04,-0.99 l 0.17,-0.16 c 0.32,-0.3 0.65,-0.59 0.98,-0.88 0.14,-0.11 0.27,-0.23 0.41,-0.35 0.32,-0.27 0.65,-0.54 0.97,-0.8 0.11,-0.09 0.22,-0.17 0.33,-0.25 0.66,-0.52 1.33,-1.01 2.01,-1.48 0.11,-0.08 0.22,-0.16 0.34,-0.24 0.33,-0.22 0.66,-0.43 1,-0.65 0.17,-0.11 0.35,-0.22 0.52,-0.32 0.34,-0.21 0.67,-0.41 1.01,-0.6 0.16,-0.09 0.32,-0.18 0.47,-0.27 0.66,-0.36 1.33,-0.71 2,-1.04 0.15,-0.07 0.29,-0.15 0.44,-0.22 0.34,-0.16 0.68,-0.31 1.03,-0.47 0.2,-0.09 0.4,-0.17 0.6,-0.26 0.34,-0.14 0.69,-0.28 1.03,-0.42 0.2,-0.08 0.39,-0.15 0.59,-0.22 0.65,-0.24 1.29,-0.47 1.95,-0.68 0.18,-0.06 0.37,-0.12 0.56,-0.18 0.34,-0.1 0.68,-0.2 1.03,-0.29 0.22,-0.07 0.45,-0.13 0.68,-0.19 0.34,-0.09 0.68,-0.17 1.03,-0.25 0.22,-0.05 0.45,-0.1 0.67,-0.15 2.94,-0.63 5.93,-0.96 8.93,-0.96 10.79,0 21.57,4.11 29.79,12.32 16.42,16.42 16.42,43.15 -0.01,59.573 -5.78,5.782 -13.12,9.711 -21.02,11.399" /><path
       d="m 2956.9038,362.75151 c 0.25,-46.16 -36.97,-83.78 -83.13,-84.03 -46.17,-0.25 -83.79,36.97 -84.04,83.13 -0.25,46.164 36.97,83.789 83.14,84.038 46.16,0.25 83.78,-36.97 84.03,-83.138"
       style="fill:none;fill-opacity:1;fill-rule:nonzero;stroke:none;stroke-width:0.1"
       id="path5329"
       inkscape:connector-curvature="0"
       inkscape:export-xdpi="27.551323"
       inkscape:export-ydpi="27.551323" /><g
       id="g5456"
       transform="translate(-103.46124,85.469506)"><path
         d="m 2941.49,297.44 0.07,-0.05 c 0.19,-0.14 0.39,-0.27 0.59,-0.39 l 0.04,-0.03 -0.01,0.01 c 0.86,-0.49 1.84,-0.77 2.89,-0.77 h 63.42 c 3.24,0 5.87,2.64 5.87,5.883 0,1.712 -0.73,3.247 -1.9,4.321 l 0.01,-0.006 -0.08,0.071 c -0.09,0.08 -0.18,0.157 -0.27,0.23 l -0.17,0.123 c -0.09,0.065 -0.18,0.131 -0.27,0.191 l -0.2,0.123 c -0.09,0.052 -0.18,0.104 -0.27,0.152 l -0.24,0.119 -0.25,0.113 c -0.1,0.039 -0.2,0.073 -0.3,0.108 l -0.23,0.08 c -0.11,0.033 -0.22,0.059 -0.34,0.087 l -0.21,0.051 c -0.13,0.026 -0.26,0.043 -0.39,0.061 l -0.18,0.024 c -0.19,0.02 -0.39,0.031 -0.58,0.031 v 0 h -63.42 v 0 c -3.24,0 -5.87,-2.633 -5.87,-5.878 0,-0.317 0.03,-0.625 0.08,-0.929 0.24,-1.505 1.05,-2.825 2.21,-3.725"
         style="fill:#000000;fill-opacity:1;fill-rule:nonzero;stroke:none;stroke-width:0.1"
         id="path190"
         inkscape:connector-curvature="0" /><path
         d="m 3012.46,281.16 0.01,-0.01 -0.07,0.07 c -0.1,0.08 -0.19,0.16 -0.29,0.24 l -0.15,0.11 c -0.09,0.07 -0.19,0.14 -0.28,0.2 l -0.19,0.11 c -0.09,0.06 -0.19,0.12 -0.28,0.16 l -0.23,0.11 c -0.09,0.05 -0.18,0.09 -0.27,0.13 l -0.26,0.09 -0.26,0.09 c -0.1,0.03 -0.2,0.06 -0.3,0.08 l -0.25,0.06 c -0.11,0.02 -0.22,0.04 -0.33,0.05 l -0.24,0.04 c -0.14,0.01 -0.27,0.01 -0.41,0.02 l -0.17,0.01 h -63.42 c -1.99,0 -3.74,-1 -4.81,-2.51 -0.67,-0.96 -1.06,-2.12 -1.06,-3.37 0,-0.36 0.03,-0.72 0.1,-1.06 0.26,-1.46 1.06,-2.72 2.18,-3.59 l 0.09,-0.06 c 0.18,-0.14 0.37,-0.27 0.57,-0.38 l 0.05,-0.03 h -0.01 c 0.86,-0.48 1.84,-0.76 2.89,-0.76 h 63.42 c 3.24,0 5.87,2.63 5.87,5.88 0,1.71 -0.73,3.24 -1.9,4.32"
         style="fill:#000000;fill-opacity:1;fill-rule:nonzero;stroke:none;stroke-width:0.1"
         id="path192"
         inkscape:connector-curvature="0" /><path
         d="m 3012.46,255.9 h 0.01 l -0.07,0.06 c -0.09,0.08 -0.19,0.17 -0.29,0.25 l -0.14,0.1 c -0.1,0.07 -0.2,0.14 -0.3,0.21 l -0.17,0.1 c -0.1,0.06 -0.19,0.12 -0.29,0.17 l -0.21,0.1 c -0.1,0.05 -0.19,0.09 -0.29,0.13 l -0.24,0.09 c -0.1,0.04 -0.19,0.07 -0.29,0.1 l -0.26,0.07 c -0.1,0.02 -0.19,0.05 -0.29,0.07 -0.09,0.02 -0.18,0.03 -0.27,0.04 -0.1,0.01 -0.2,0.03 -0.3,0.04 l -0.24,0.01 c -0.11,0.01 -0.22,0.02 -0.33,0.02 h -63.42 c -2.23,0 -4.17,-1.24 -5.16,-3.08 -0.46,-0.83 -0.71,-1.78 -0.71,-2.8 0,-0.4 0.04,-0.8 0.11,-1.18 0.29,-1.4 1.08,-2.62 2.17,-3.46 l 0.09,-0.07 c 0.18,-0.13 0.37,-0.26 0.56,-0.37 l 0.06,-0.04 -0.01,0.01 c 0.85,-0.48 1.84,-0.77 2.89,-0.77 h 63.42 c 3.24,0 5.87,2.64 5.87,5.88 0,1.71 -0.73,3.25 -1.9,4.32"
         style="fill:#000000;fill-opacity:1;fill-rule:nonzero;stroke:none;stroke-width:0.1"
         id="path194"
         inkscape:connector-curvature="0" /></g><path
       d="m 2789.6313,362.75552 c 0.25,-46.16 -36.97,-83.79 -83.13,-84.04 -46.17,-0.25 -83.79,36.97 -84.04,83.14 -0.25,46.159 36.97,83.784 83.13,84.034 46.17,0.249 83.79,-36.972 84.04,-83.134"
       style="fill:none;fill-opacity:1;fill-rule:nonzero;stroke:none;stroke-width:0.1"
       id="path5331"
       inkscape:connector-curvature="0"
       inkscape:export-xdpi="27.551323"
       inkscape:export-ydpi="27.551323" /><path
       inkscape:connector-curvature="0"
       id="path196"
       style="fill:#000000;fill-opacity:1;fill-rule:nonzero;stroke:none;stroke-width:0.1"
       d="m 2681.2013,346.40552 c -0.11,0.04 -0.22,0.07 -0.33,0.11 -1.41,0.53 -2.95,0.83 -4.55,0.83 -4.79,0 -8.97,-2.57 -11.25,-6.41 -1.17,-1.95 -1.84,-4.24 -1.84,-6.68 0,-0.26 0.01,-0.51 0.02,-0.76 l 0.01,-0.1 c 0.01,-0.21 0.03,-0.42 0.06,-0.64 l 0.02,-0.16 c 0.02,-0.19 0.05,-0.38 0.08,-0.56 l 0.03,-0.18 c 0.04,-0.19 0.08,-0.37 0.12,-0.55 l 0.03,-0.16 c 0.05,-0.2 0.11,-0.41 0.17,-0.61 l 0.02,-0.08 c 0.21,-0.7 0.48,-1.37 0.8,-2.02 l 0.04,-0.08 c 0.1,-0.19 0.2,-0.37 0.3,-0.55 l 0.05,-0.09 c 0.11,-0.19 0.22,-0.37 0.33,-0.54 l 0.04,-0.06 c 2.34,-3.59 6.38,-5.96 10.97,-5.96 7.23,0 13.09,5.87 13.09,13.1 v 35.47 l 36.89,13.919 v -1.165 -10e-4 -29.523 c -1.5,0.6 -3.15,0.94 -4.87,0.94 -5.2,0 -9.69,-3.03 -11.8,-7.42 -0.83,-1.72 -1.3,-3.64 -1.3,-5.68 0,-0.26 0.01,-0.51 0.03,-0.76 v -0.06 c 0.02,-0.23 0.04,-0.45 0.06,-0.68 l 0.02,-0.13 c 0.03,-0.2 0.05,-0.4 0.09,-0.6 l 0.02,-0.15 c 0.04,-0.2 0.08,-0.4 0.13,-0.59 l 0.02,-0.12 c 0.06,-0.22 0.12,-0.44 0.18,-0.67 l 0.01,-0.01 c 0.22,-0.72 0.49,-1.41 0.82,-2.07 v 0 c 0.11,-0.22 0.22,-0.43 0.34,-0.64 l 0.01,-0.01 c 2.26,-3.94 6.5,-6.6 11.37,-6.6 7.23,0 13.09,5.86 13.09,13.09 0,0.26 -0.01,0.52 -0.03,0.78 h 0.03 v 47.061 19.216 10e-4 1.168 l -53.32,-20.12 v -42.496" /><path
       d="m 2956.9813,530.03 c 0.25,-46.164 -36.97,-83.788 -83.13,-84.038 -46.17,-0.249 -83.79,36.972 -84.04,83.135 -0.25,46.164 36.97,83.788 83.13,84.038 46.17,0.249 83.79,-36.972 84.04,-83.135"
       style="fill:none;fill-opacity:1;fill-rule:nonzero;stroke:none;stroke-width:0.1"
       id="path5327"
       inkscape:connector-curvature="0"
       inkscape:export-xdpi="27.551323"
       inkscape:export-ydpi="27.551323" /><path
       inkscape:connector-curvature="0"
       id="path198"
       style="fill:#000000;fill-opacity:1;fill-rule:nonzero;stroke:none;stroke-width:0.1"
       d="m 2903.4063,529.579 c 0,8.365 -3.43,15.928 -8.95,21.37 l 0.04,-0.031 c -0.16,0.16 -0.33,0.312 -0.5,0.469 -0.16,0.152 -0.32,0.307 -0.48,0.457 -0.18,0.16 -0.36,0.312 -0.54,0.468 -0.19,0.159 -0.37,0.319 -0.55,0.473 -0.17,0.138 -0.35,0.27 -0.52,0.404 -0.21,0.163 -0.41,0.328 -0.62,0.484 -0.16,0.118 -0.32,0.229 -0.48,0.344 -0.23,0.165 -0.46,0.331 -0.7,0.489 -0.15,0.099 -0.3,0.192 -0.45,0.289 -0.25,0.165 -0.51,0.331 -0.77,0.488 -0.13,0.083 -0.28,0.159 -0.42,0.24 -0.27,0.162 -0.55,0.325 -0.83,0.478 -0.13,0.068 -0.26,0.131 -0.39,0.198 -0.3,0.156 -0.6,0.314 -0.91,0.459 -0.11,0.057 -0.23,0.108 -0.35,0.162 -0.32,0.149 -0.64,0.297 -0.97,0.434 -0.12,0.049 -0.23,0.091 -0.35,0.138 -0.33,0.135 -0.67,0.27 -1.01,0.394 -0.12,0.043 -0.24,0.08 -0.36,0.122 -0.34,0.119 -0.68,0.238 -1.03,0.345 -0.12,0.038 -0.25,0.07 -0.37,0.106 -0.35,0.103 -0.69,0.204 -1.04,0.294 -0.14,0.035 -0.28,0.064 -0.43,0.098 -0.33,0.081 -0.67,0.164 -1.01,0.233 -0.17,0.035 -0.34,0.059 -0.51,0.09 -0.32,0.06 -0.64,0.122 -0.96,0.172 -0.21,0.031 -0.42,0.052 -0.62,0.078 -0.29,0.038 -0.58,0.081 -0.88,0.111 -0.26,0.027 -0.53,0.041 -0.8,0.06 -0.24,0.019 -0.47,0.042 -0.71,0.055 -0.51,0.025 -1.03,0.039 -1.54,0.039 -9.84,0 -18.58,-4.737 -24.05,-12.055 -3.74,-5.008 -5.96,-11.223 -5.96,-17.957 0,-0.168 0.01,-0.334 0.01,-0.502 0.01,-0.367 0.01,-0.735 0.03,-1.099 0.02,-0.244 0.04,-0.484 0.06,-0.726 0.02,-0.294 0.04,-0.588 0.07,-0.879 0.03,-0.252 0.06,-0.5 0.1,-0.75 0.03,-0.278 0.07,-0.557 0.11,-0.832 0.04,-0.25 0.09,-0.498 0.14,-0.746 0.05,-0.272 0.1,-0.543 0.16,-0.813 0.05,-0.244 0.11,-0.487 0.17,-0.729 0.06,-0.269 0.13,-0.536 0.2,-0.802 0.07,-0.237 0.13,-0.473 0.2,-0.709 0.08,-0.267 0.17,-0.533 0.25,-0.798 0.08,-0.226 0.15,-0.453 0.23,-0.677 0.1,-0.271 0.1999,-0.537 0.31,-0.804 0.08,-0.214 0.1599,-0.428 0.25,-0.639 0.1199,-0.28 0.2399,-0.555 0.36,-0.832 0.09,-0.19 0.17,-0.384 0.26,-0.572 0.16,-0.324 0.32,-0.643 0.49,-0.96 0.07,-0.135 0.13,-0.272 0.21,-0.406 0.24,-0.446 0.49,-0.883 0.75,-1.315 0.08,-0.127 0.16,-0.25 0.24,-0.376 0.1999,-0.304 0.3899,-0.609 0.59,-0.907 0.11,-0.164 0.23,-0.323 0.35,-0.484 0.1799,-0.253 0.36,-0.506 0.54,-0.753 0.13,-0.171 0.27,-0.337 0.4,-0.505 0.1799,-0.231 0.37,-0.46 0.56,-0.685 0.1399,-0.17 0.28,-0.335 0.4299,-0.501 0.19,-0.215 0.3801,-0.429 0.58,-0.64 0.15,-0.163 0.3001,-0.325 0.46,-0.486 0.2,-0.204 0.4,-0.405 0.6101,-0.603 0.1599,-0.156 0.32,-0.313 0.48,-0.465 0.21,-0.195 0.4299,-0.386 0.6399,-0.574 0.1101,-0.098 0.22,-0.201 0.33,-0.297 l -0.06,0.063 c 5.25,-4.489 12.0501,-7.206 19.5,-7.206 16.5701,0 30.0101,13.437 30.0101,30.011" /></g></svg>